<mxfile host="Electron" modified="2023-06-16T07:44:29.479Z" agent="Mozilla/5.0 (Windows NT 10.0; Win64; x64) AppleWebKit/537.36 (KHTML, like Gecko) draw.io/21.3.7 Chrome/112.0.5615.204 Electron/24.5.0 Safari/537.36" etag="NtQuEewqNoK_viuGNVbV" version="21.3.7" type="device">
  <diagram name="Page-1" id="fgaZH6dI7zZMXxplyw9Q">
    <mxGraphModel dx="5200" dy="5507" grid="1" gridSize="10" guides="1" tooltips="1" connect="1" arrows="1" fold="1" page="1" pageScale="1" pageWidth="850" pageHeight="1100" math="0" shadow="0">
      <root>
        <mxCell id="0" />
        <mxCell id="1" parent="0" />
        <mxCell id="_XPZTrRJgXY3tf3FXqIN-10" value="activities&amp;nbsp;" style="shape=folder;fontStyle=1;tabWidth=110;tabHeight=30;tabPosition=left;html=1;boundedLbl=1;labelInHeader=1;container=0;collapsible=0;recursiveResize=0;whiteSpace=wrap;fillColor=default;strokeWidth=3;" parent="1" vertex="1">
          <mxGeometry x="10" y="-1890" width="6980" height="4250" as="geometry" />
        </mxCell>
        <mxCell id="_XPZTrRJgXY3tf3FXqIN-81" style="rounded=0;orthogonalLoop=1;jettySize=auto;html=1;endArrow=none;endFill=0;dashed=1;exitX=0;exitY=1;exitDx=0;exitDy=0;entryX=0.5;entryY=0;entryDx=0;entryDy=0;" parent="1" source="_XPZTrRJgXY3tf3FXqIN-78" target="_XPZTrRJgXY3tf3FXqIN-83" edge="1">
          <mxGeometry relative="1" as="geometry">
            <mxPoint x="377.7215189873418" y="-1572.2784810126582" as="sourcePoint" />
            <mxPoint x="-30" y="-1530" as="targetPoint" />
          </mxGeometry>
        </mxCell>
        <mxCell id="_XPZTrRJgXY3tf3FXqIN-82" value="&lt;blockquote style=&quot;margin: 0 0 0 40px; border: none; padding: 0px;&quot;&gt;ID : minimum 6 characters&lt;div style=&quot;border-color: var(--border-color);&quot;&gt;&lt;span style=&quot;border-color: var(--border-color); background-color: initial;&quot;&gt;password : minimum 6 characters&amp;nbsp;&lt;/span&gt;&lt;/div&gt;&lt;/blockquote&gt;" style="shape=note2;boundedLbl=1;whiteSpace=wrap;html=1;size=25;verticalAlign=top;align=left;fillColor=#FFFFC0;strokeColor=#FF0000;" parent="1" vertex="1">
          <mxGeometry x="390" y="-1410" width="260" height="80" as="geometry" />
        </mxCell>
        <mxCell id="_XPZTrRJgXY3tf3FXqIN-83" value="Enter ID/PasswordÂ " style="resizeWidth=1;part=1;strokeColor=none;fillColor=none;align=left;spacingLeft=5;" parent="_XPZTrRJgXY3tf3FXqIN-82" vertex="1">
          <mxGeometry width="260" height="25" relative="1" as="geometry" />
        </mxCell>
        <mxCell id="_XPZTrRJgXY3tf3FXqIN-84" value="class diagram" style="shape=folder;fontStyle=1;tabWidth=110;tabHeight=30;tabPosition=left;html=1;boundedLbl=1;labelInHeader=1;container=1;collapsible=0;recursiveResize=0;whiteSpace=wrap;fillColor=default;strokeWidth=3;" parent="1" vertex="1">
          <mxGeometry x="70" y="3040" width="2420" height="1440" as="geometry" />
        </mxCell>
        <mxCell id="_XPZTrRJgXY3tf3FXqIN-193" value="&lt;font color=&quot;#2a0440&quot;&gt;Console&lt;/font&gt;" style="shape=folder;fontStyle=1;tabWidth=110;tabHeight=30;tabPosition=left;html=1;boundedLbl=1;labelInHeader=1;container=1;collapsible=0;recursiveResize=0;whiteSpace=wrap;fillColor=#d0cee2;strokeColor=#56517e;" parent="_XPZTrRJgXY3tf3FXqIN-84" vertex="1">
          <mxGeometry x="50" y="325" width="230" height="160" as="geometry" />
        </mxCell>
        <mxCell id="_XPZTrRJgXY3tf3FXqIN-197" value="Program" style="swimlane;fontStyle=1;align=center;verticalAlign=top;childLayout=stackLayout;horizontal=1;startSize=26;horizontalStack=0;resizeParent=1;resizeParentMax=0;resizeLast=0;collapsible=1;marginBottom=0;whiteSpace=wrap;html=1;" parent="_XPZTrRJgXY3tf3FXqIN-193" vertex="1">
          <mxGeometry x="20" y="40" width="160" height="96" as="geometry">
            <mxRectangle x="20" y="40" width="90" height="30" as="alternateBounds" />
          </mxGeometry>
        </mxCell>
        <mxCell id="_XPZTrRJgXY3tf3FXqIN-198" value="" style="text;strokeColor=#0e8088;fillColor=#FBF7FF;align=left;verticalAlign=top;spacingLeft=4;spacingRight=4;overflow=hidden;rotatable=0;points=[[0,0.5],[1,0.5]];portConstraint=eastwest;whiteSpace=wrap;html=1;" parent="_XPZTrRJgXY3tf3FXqIN-197" vertex="1">
          <mxGeometry y="26" width="160" height="26" as="geometry" />
        </mxCell>
        <mxCell id="_XPZTrRJgXY3tf3FXqIN-199" value="" style="line;strokeWidth=1;fillColor=none;align=left;verticalAlign=middle;spacingTop=-1;spacingLeft=3;spacingRight=3;rotatable=0;labelPosition=right;points=[];portConstraint=eastwest;strokeColor=inherit;" parent="_XPZTrRJgXY3tf3FXqIN-197" vertex="1">
          <mxGeometry y="52" width="160" height="8" as="geometry" />
        </mxCell>
        <mxCell id="_XPZTrRJgXY3tf3FXqIN-200" value="main(args : string[]) :void" style="text;strokeColor=#0e8088;fillColor=#FBF7FF;align=left;verticalAlign=top;spacingLeft=4;spacingRight=4;overflow=hidden;rotatable=0;points=[[0,0.5],[1,0.5]];portConstraint=eastwest;whiteSpace=wrap;html=1;" parent="_XPZTrRJgXY3tf3FXqIN-197" vertex="1">
          <mxGeometry y="60" width="160" height="36" as="geometry" />
        </mxCell>
        <mxCell id="_XPZTrRJgXY3tf3FXqIN-202" value="ThreeLayerLib" style="shape=folder;fontStyle=1;tabWidth=110;tabHeight=30;tabPosition=left;html=1;boundedLbl=1;labelInHeader=1;container=1;collapsible=0;recursiveResize=0;whiteSpace=wrap;fillColor=#d5e8d4;strokeColor=#82b366;" parent="_XPZTrRJgXY3tf3FXqIN-84" vertex="1">
          <mxGeometry x="450" y="100" width="1100" height="1160" as="geometry" />
        </mxCell>
        <mxCell id="_XPZTrRJgXY3tf3FXqIN-207" value="Persistance" style="shape=folder;fontStyle=1;tabWidth=110;tabHeight=30;tabPosition=left;html=1;boundedLbl=1;labelInHeader=1;container=1;collapsible=0;recursiveResize=0;whiteSpace=wrap;fillColor=#bac8d3;strokeColor=#23445d;" parent="_XPZTrRJgXY3tf3FXqIN-202" vertex="1">
          <mxGeometry x="25" y="50" width="1015" height="510" as="geometry" />
        </mxCell>
        <mxCell id="_XPZTrRJgXY3tf3FXqIN-231" style="edgeStyle=orthogonalEdgeStyle;rounded=0;orthogonalLoop=1;jettySize=auto;html=1;entryX=0.006;entryY=0.66;entryDx=0;entryDy=0;entryPerimeter=0;endArrow=none;endFill=0;startArrow=diamondThin;startFill=1;startSize=20;dashed=1;" parent="_XPZTrRJgXY3tf3FXqIN-207" source="_XPZTrRJgXY3tf3FXqIN-208" target="_XPZTrRJgXY3tf3FXqIN-217" edge="1">
          <mxGeometry relative="1" as="geometry" />
        </mxCell>
        <mxCell id="_XPZTrRJgXY3tf3FXqIN-208" value="Item" style="swimlane;fontStyle=1;align=center;verticalAlign=top;childLayout=stackLayout;horizontal=1;startSize=26;horizontalStack=0;resizeParent=1;resizeParentMax=0;resizeLast=0;collapsible=1;marginBottom=0;whiteSpace=wrap;html=1;" parent="_XPZTrRJgXY3tf3FXqIN-207" vertex="1">
          <mxGeometry x="25" y="50" width="160" height="204" as="geometry">
            <mxRectangle x="20" y="40" width="90" height="30" as="alternateBounds" />
          </mxGeometry>
        </mxCell>
        <mxCell id="_XPZTrRJgXY3tf3FXqIN-209" value="+ itemID : string&lt;br&gt;+ itemName : string&lt;br&gt;+ size : string&lt;br&gt;+&amp;nbsp;quantity : int&lt;br&gt;+ unitPrice : float&lt;br&gt;+ status : string" style="text;strokeColor=none;fillColor=default;align=left;verticalAlign=top;spacingLeft=4;spacingRight=4;overflow=hidden;rotatable=0;points=[[0,0.5],[1,0.5]];portConstraint=eastwest;whiteSpace=wrap;html=1;" parent="_XPZTrRJgXY3tf3FXqIN-208" vertex="1">
          <mxGeometry y="26" width="160" height="134" as="geometry" />
        </mxCell>
        <mxCell id="_XPZTrRJgXY3tf3FXqIN-210" value="" style="line;strokeWidth=1;fillColor=none;align=left;verticalAlign=middle;spacingTop=-1;spacingLeft=3;spacingRight=3;rotatable=0;labelPosition=right;points=[];portConstraint=eastwest;strokeColor=inherit;" parent="_XPZTrRJgXY3tf3FXqIN-208" vertex="1">
          <mxGeometry y="160" width="160" height="8" as="geometry" />
        </mxCell>
        <mxCell id="_XPZTrRJgXY3tf3FXqIN-211" value="+ item()" style="text;strokeColor=none;fillColor=default;align=left;verticalAlign=top;spacingLeft=4;spacingRight=4;overflow=hidden;rotatable=0;points=[[0,0.5],[1,0.5]];portConstraint=eastwest;whiteSpace=wrap;html=1;" parent="_XPZTrRJgXY3tf3FXqIN-208" vertex="1">
          <mxGeometry y="168" width="160" height="36" as="geometry" />
        </mxCell>
        <mxCell id="_XPZTrRJgXY3tf3FXqIN-212" value="customer" style="swimlane;fontStyle=1;align=center;verticalAlign=top;childLayout=stackLayout;horizontal=1;startSize=26;horizontalStack=0;resizeParent=1;resizeParentMax=0;resizeLast=0;collapsible=1;marginBottom=0;whiteSpace=wrap;html=1;" parent="_XPZTrRJgXY3tf3FXqIN-207" vertex="1">
          <mxGeometry x="835" y="42" width="160" height="204" as="geometry">
            <mxRectangle x="20" y="40" width="90" height="30" as="alternateBounds" />
          </mxGeometry>
        </mxCell>
        <mxCell id="_XPZTrRJgXY3tf3FXqIN-213" value="+ customerID : string&lt;br&gt;+ customerName : string&lt;br&gt;+ address : string&lt;br&gt;+ point : float" style="text;strokeColor=none;fillColor=default;align=left;verticalAlign=top;spacingLeft=4;spacingRight=4;overflow=hidden;rotatable=0;points=[[0,0.5],[1,0.5]];portConstraint=eastwest;whiteSpace=wrap;html=1;" parent="_XPZTrRJgXY3tf3FXqIN-212" vertex="1">
          <mxGeometry y="26" width="160" height="134" as="geometry" />
        </mxCell>
        <mxCell id="_XPZTrRJgXY3tf3FXqIN-214" value="" style="line;strokeWidth=1;fillColor=none;align=left;verticalAlign=middle;spacingTop=-1;spacingLeft=3;spacingRight=3;rotatable=0;labelPosition=right;points=[];portConstraint=eastwest;strokeColor=inherit;" parent="_XPZTrRJgXY3tf3FXqIN-212" vertex="1">
          <mxGeometry y="160" width="160" height="8" as="geometry" />
        </mxCell>
        <mxCell id="_XPZTrRJgXY3tf3FXqIN-215" value="+ customer()" style="text;strokeColor=none;fillColor=default;align=left;verticalAlign=top;spacingLeft=4;spacingRight=4;overflow=hidden;rotatable=0;points=[[0,0.5],[1,0.5]];portConstraint=eastwest;whiteSpace=wrap;html=1;" parent="_XPZTrRJgXY3tf3FXqIN-212" vertex="1">
          <mxGeometry y="168" width="160" height="36" as="geometry" />
        </mxCell>
        <mxCell id="_XPZTrRJgXY3tf3FXqIN-216" value="Invoice" style="swimlane;fontStyle=1;align=center;verticalAlign=top;childLayout=stackLayout;horizontal=1;startSize=26;horizontalStack=0;resizeParent=1;resizeParentMax=0;resizeLast=0;collapsible=1;marginBottom=0;whiteSpace=wrap;html=1;fillColor=default;" parent="_XPZTrRJgXY3tf3FXqIN-207" vertex="1">
          <mxGeometry x="377.5" y="50" width="260" height="174" as="geometry" />
        </mxCell>
        <mxCell id="_XPZTrRJgXY3tf3FXqIN-217" value="+ InvoiceNo: string&lt;br&gt;+ InvoiceCustomer: Customer&lt;br&gt;+ InvoiceDate: Datetime&lt;br&gt;+ Accountance: Staff&lt;br&gt;+ Items: Item[]&lt;br&gt;+ Status: int&lt;br&gt;+ Note: string&lt;br&gt;" style="text;strokeColor=none;fillColor=default;align=left;verticalAlign=top;spacingLeft=4;spacingRight=4;overflow=hidden;rotatable=0;points=[[0,0.5],[1,0.5]];portConstraint=eastwest;whiteSpace=wrap;html=1;" parent="_XPZTrRJgXY3tf3FXqIN-216" vertex="1">
          <mxGeometry y="26" width="260" height="114" as="geometry" />
        </mxCell>
        <mxCell id="_XPZTrRJgXY3tf3FXqIN-218" value="" style="line;strokeWidth=1;fillColor=none;align=left;verticalAlign=middle;spacingTop=-1;spacingLeft=3;spacingRight=3;rotatable=0;labelPosition=right;points=[];portConstraint=eastwest;strokeColor=inherit;" parent="_XPZTrRJgXY3tf3FXqIN-216" vertex="1">
          <mxGeometry y="140" width="260" height="8" as="geometry" />
        </mxCell>
        <mxCell id="_XPZTrRJgXY3tf3FXqIN-219" value="+ Invoice()" style="text;strokeColor=none;fillColor=default;align=left;verticalAlign=top;spacingLeft=4;spacingRight=4;overflow=hidden;rotatable=0;points=[[0,0.5],[1,0.5]];portConstraint=eastwest;whiteSpace=wrap;html=1;" parent="_XPZTrRJgXY3tf3FXqIN-216" vertex="1">
          <mxGeometry y="148" width="260" height="26" as="geometry" />
        </mxCell>
        <mxCell id="_XPZTrRJgXY3tf3FXqIN-220" value="Staff" style="swimlane;fontStyle=1;align=center;verticalAlign=top;childLayout=stackLayout;horizontal=1;startSize=26;horizontalStack=0;resizeParent=1;resizeParentMax=0;resizeLast=0;collapsible=1;marginBottom=0;whiteSpace=wrap;html=1;fillColor=default;" parent="_XPZTrRJgXY3tf3FXqIN-207" vertex="1">
          <mxGeometry x="835" y="340" width="160" height="120" as="geometry" />
        </mxCell>
        <mxCell id="_XPZTrRJgXY3tf3FXqIN-221" value="+ StaffName: string&lt;br&gt;+ Password: string" style="text;strokeColor=none;fillColor=default;align=left;verticalAlign=top;spacingLeft=4;spacingRight=4;overflow=hidden;rotatable=0;points=[[0,0.5],[1,0.5]];portConstraint=eastwest;whiteSpace=wrap;html=1;" parent="_XPZTrRJgXY3tf3FXqIN-220" vertex="1">
          <mxGeometry y="26" width="160" height="44" as="geometry" />
        </mxCell>
        <mxCell id="_XPZTrRJgXY3tf3FXqIN-222" value="" style="line;strokeWidth=1;fillColor=none;align=left;verticalAlign=middle;spacingTop=-1;spacingLeft=3;spacingRight=3;rotatable=0;labelPosition=right;points=[];portConstraint=eastwest;strokeColor=inherit;" parent="_XPZTrRJgXY3tf3FXqIN-220" vertex="1">
          <mxGeometry y="70" width="160" height="8" as="geometry" />
        </mxCell>
        <mxCell id="_XPZTrRJgXY3tf3FXqIN-223" value="+ IsValidStaffName(): bool&lt;br&gt;+ IsValidPassword(): bool" style="text;strokeColor=none;fillColor=default;align=left;verticalAlign=top;spacingLeft=4;spacingRight=4;overflow=hidden;rotatable=0;points=[[0,0.5],[1,0.5]];portConstraint=eastwest;whiteSpace=wrap;html=1;" parent="_XPZTrRJgXY3tf3FXqIN-220" vertex="1">
          <mxGeometry y="78" width="160" height="42" as="geometry" />
        </mxCell>
        <mxCell id="_XPZTrRJgXY3tf3FXqIN-226" style="edgeStyle=orthogonalEdgeStyle;rounded=0;orthogonalLoop=1;jettySize=auto;html=1;endArrow=diamondThin;endFill=1;startSize=20;endSize=20;dashed=1;" parent="_XPZTrRJgXY3tf3FXqIN-207" source="_XPZTrRJgXY3tf3FXqIN-217" target="_XPZTrRJgXY3tf3FXqIN-221" edge="1">
          <mxGeometry relative="1" as="geometry">
            <Array as="points">
              <mxPoint x="736" y="140" />
              <mxPoint x="736" y="388" />
            </Array>
          </mxGeometry>
        </mxCell>
        <mxCell id="_XPZTrRJgXY3tf3FXqIN-229" value="" style="endArrow=none;endFill=0;endSize=24;html=1;rounded=0;exitX=-0.016;exitY=0.253;exitDx=0;exitDy=0;exitPerimeter=0;startArrow=diamondThin;startFill=1;targetPerimeterSpacing=0;startSize=20;dashed=1;" parent="_XPZTrRJgXY3tf3FXqIN-207" source="_XPZTrRJgXY3tf3FXqIN-213" edge="1">
          <mxGeometry width="160" relative="1" as="geometry">
            <mxPoint x="465" y="240" as="sourcePoint" />
            <mxPoint x="635" y="102" as="targetPoint" />
          </mxGeometry>
        </mxCell>
        <mxCell id="_XPZTrRJgXY3tf3FXqIN-232" value="*..." style="text;html=1;align=center;verticalAlign=middle;resizable=0;points=[];autosize=1;strokeColor=none;fillColor=none;" parent="_XPZTrRJgXY3tf3FXqIN-207" vertex="1">
          <mxGeometry x="630" y="80" width="40" height="30" as="geometry" />
        </mxCell>
        <mxCell id="_XPZTrRJgXY3tf3FXqIN-233" value="1" style="text;html=1;align=center;verticalAlign=middle;resizable=0;points=[];autosize=1;strokeColor=none;fillColor=none;" parent="_XPZTrRJgXY3tf3FXqIN-207" vertex="1">
          <mxGeometry x="785" y="80" width="30" height="30" as="geometry" />
        </mxCell>
        <mxCell id="_XPZTrRJgXY3tf3FXqIN-255" value="" style="shape=folder;fontStyle=1;tabWidth=80;tabHeight=30;tabPosition=left;html=1;boundedLbl=1;whiteSpace=wrap;fillColor=#fad9d5;strokeColor=#ae4132;" parent="_XPZTrRJgXY3tf3FXqIN-202" vertex="1">
          <mxGeometry x="30" y="650" width="260" height="270" as="geometry" />
        </mxCell>
        <mxCell id="_XPZTrRJgXY3tf3FXqIN-256" value="StaffBL" style="swimlane;fontStyle=1;align=center;verticalAlign=top;childLayout=stackLayout;horizontal=1;startSize=26;horizontalStack=0;resizeParent=1;resizeParentMax=0;resizeLast=0;collapsible=1;marginBottom=0;whiteSpace=wrap;html=1;" parent="_XPZTrRJgXY3tf3FXqIN-202" vertex="1">
          <mxGeometry x="55" y="700" width="220" height="86" as="geometry" />
        </mxCell>
        <mxCell id="_XPZTrRJgXY3tf3FXqIN-257" value="- dal: StaffDAL" style="text;strokeColor=none;fillColor=default;align=left;verticalAlign=top;spacingLeft=4;spacingRight=4;overflow=hidden;rotatable=0;points=[[0,0.5],[1,0.5]];portConstraint=eastwest;whiteSpace=wrap;html=1;" parent="_XPZTrRJgXY3tf3FXqIN-256" vertex="1">
          <mxGeometry y="26" width="220" height="26" as="geometry" />
        </mxCell>
        <mxCell id="_XPZTrRJgXY3tf3FXqIN-258" value="" style="line;strokeWidth=1;fillColor=none;align=left;verticalAlign=middle;spacingTop=-1;spacingLeft=3;spacingRight=3;rotatable=0;labelPosition=right;points=[];portConstraint=eastwest;strokeColor=inherit;" parent="_XPZTrRJgXY3tf3FXqIN-256" vertex="1">
          <mxGeometry y="52" width="220" height="8" as="geometry" />
        </mxCell>
        <mxCell id="_XPZTrRJgXY3tf3FXqIN-259" value="+ Login(staff: Staff): int" style="text;strokeColor=none;fillColor=default;align=left;verticalAlign=top;spacingLeft=4;spacingRight=4;overflow=hidden;rotatable=0;points=[[0,0.5],[1,0.5]];portConstraint=eastwest;whiteSpace=wrap;html=1;" parent="_XPZTrRJgXY3tf3FXqIN-256" vertex="1">
          <mxGeometry y="60" width="220" height="26" as="geometry" />
        </mxCell>
        <mxCell id="_XPZTrRJgXY3tf3FXqIN-260" value="InvoiceBL" style="swimlane;fontStyle=1;align=center;verticalAlign=top;childLayout=stackLayout;horizontal=1;startSize=26;horizontalStack=0;resizeParent=1;resizeParentMax=0;resizeLast=0;collapsible=1;marginBottom=0;whiteSpace=wrap;html=1;" parent="_XPZTrRJgXY3tf3FXqIN-202" vertex="1">
          <mxGeometry x="55" y="810" width="220" height="86" as="geometry" />
        </mxCell>
        <mxCell id="_XPZTrRJgXY3tf3FXqIN-261" value="- invoiceDal: InvoiceDAL&amp;nbsp;" style="text;strokeColor=none;fillColor=default;align=left;verticalAlign=top;spacingLeft=4;spacingRight=4;overflow=hidden;rotatable=0;points=[[0,0.5],[1,0.5]];portConstraint=eastwest;whiteSpace=wrap;html=1;" parent="_XPZTrRJgXY3tf3FXqIN-260" vertex="1">
          <mxGeometry y="26" width="220" height="26" as="geometry" />
        </mxCell>
        <mxCell id="_XPZTrRJgXY3tf3FXqIN-262" value="" style="line;strokeWidth=1;fillColor=none;align=left;verticalAlign=middle;spacingTop=-1;spacingLeft=3;spacingRight=3;rotatable=0;labelPosition=right;points=[];portConstraint=eastwest;strokeColor=inherit;" parent="_XPZTrRJgXY3tf3FXqIN-260" vertex="1">
          <mxGeometry y="52" width="220" height="8" as="geometry" />
        </mxCell>
        <mxCell id="_XPZTrRJgXY3tf3FXqIN-263" value="+ CreateInvoice(invoice: Invoice): int" style="text;strokeColor=none;fillColor=default;align=left;verticalAlign=top;spacingLeft=4;spacingRight=4;overflow=hidden;rotatable=0;points=[[0,0.5],[1,0.5]];portConstraint=eastwest;whiteSpace=wrap;html=1;gradientColor=none;fillStyle=auto;" parent="_XPZTrRJgXY3tf3FXqIN-260" vertex="1">
          <mxGeometry y="60" width="220" height="26" as="geometry" />
        </mxCell>
        <mxCell id="_XPZTrRJgXY3tf3FXqIN-264" value="BL" style="text;html=1;align=center;verticalAlign=middle;resizable=0;points=[];autosize=1;strokeColor=none;fillColor=none;fontStyle=1" parent="_XPZTrRJgXY3tf3FXqIN-202" vertex="1">
          <mxGeometry x="50" y="650" width="40" height="30" as="geometry" />
        </mxCell>
        <mxCell id="_XPZTrRJgXY3tf3FXqIN-265" style="edgeStyle=orthogonalEdgeStyle;rounded=0;orthogonalLoop=1;jettySize=auto;html=1;dashed=1;strokeColor=default;jumpStyle=none;" parent="_XPZTrRJgXY3tf3FXqIN-84" source="_XPZTrRJgXY3tf3FXqIN-193" target="_XPZTrRJgXY3tf3FXqIN-207" edge="1">
          <mxGeometry relative="1" as="geometry" />
        </mxCell>
        <mxCell id="_XPZTrRJgXY3tf3FXqIN-266" style="edgeStyle=orthogonalEdgeStyle;rounded=0;orthogonalLoop=1;jettySize=auto;html=1;entryX=-0.003;entryY=0.523;entryDx=0;entryDy=0;entryPerimeter=0;dashed=1;" parent="_XPZTrRJgXY3tf3FXqIN-84" source="_XPZTrRJgXY3tf3FXqIN-193" target="_XPZTrRJgXY3tf3FXqIN-255" edge="1">
          <mxGeometry relative="1" as="geometry">
            <Array as="points">
              <mxPoint x="240" y="480" />
              <mxPoint x="380" y="480" />
              <mxPoint x="380" y="891" />
            </Array>
          </mxGeometry>
        </mxCell>
        <mxCell id="_XPZTrRJgXY3tf3FXqIN-87" value="use case" style="shape=folder;fontStyle=1;tabWidth=110;tabHeight=30;tabPosition=left;html=1;boundedLbl=1;labelInHeader=1;container=1;collapsible=0;recursiveResize=0;whiteSpace=wrap;fillColor=default;strokeWidth=3;" parent="1" vertex="1">
          <mxGeometry x="60" y="4600" width="1470" height="820" as="geometry" />
        </mxCell>
        <mxCell id="_XPZTrRJgXY3tf3FXqIN-166" value="clothes store" style="shape=umlFrame;whiteSpace=wrap;html=1;pointerEvents=0;recursiveResize=0;container=1;collapsible=0;width=160;strokeWidth=2;" parent="_XPZTrRJgXY3tf3FXqIN-87" vertex="1">
          <mxGeometry x="150" y="90" width="1230" height="640" as="geometry" />
        </mxCell>
        <mxCell id="_XPZTrRJgXY3tf3FXqIN-167" value="&amp;lt;&amp;lt; include &amp;gt;&amp;gt;" style="rounded=0;orthogonalLoop=1;jettySize=auto;html=1;entryX=0.5;entryY=0;entryDx=0;entryDy=0;dashed=1;" parent="_XPZTrRJgXY3tf3FXqIN-166" source="_XPZTrRJgXY3tf3FXqIN-168" target="_XPZTrRJgXY3tf3FXqIN-171" edge="1">
          <mxGeometry relative="1" as="geometry" />
        </mxCell>
        <mxCell id="_XPZTrRJgXY3tf3FXqIN-168" value="login" style="ellipse;html=1;whiteSpace=wrap;" parent="_XPZTrRJgXY3tf3FXqIN-166" vertex="1">
          <mxGeometry x="40" y="60" width="100" height="40" as="geometry" />
        </mxCell>
        <mxCell id="_XPZTrRJgXY3tf3FXqIN-171" value="create order" style="ellipse;html=1;whiteSpace=wrap;" parent="_XPZTrRJgXY3tf3FXqIN-166" vertex="1">
          <mxGeometry x="40" y="270" width="100" height="40" as="geometry" />
        </mxCell>
        <mxCell id="_XPZTrRJgXY3tf3FXqIN-185" value="export invoice" style="ellipse;html=1;whiteSpace=wrap;" parent="_XPZTrRJgXY3tf3FXqIN-166" vertex="1">
          <mxGeometry x="830" y="540" width="100" height="40" as="geometry" />
        </mxCell>
        <mxCell id="_XPZTrRJgXY3tf3FXqIN-188" style="rounded=0;orthogonalLoop=1;jettySize=auto;html=1;entryX=0;entryY=0.5;entryDx=0;entryDy=0;" parent="_XPZTrRJgXY3tf3FXqIN-87" source="_XPZTrRJgXY3tf3FXqIN-191" target="_XPZTrRJgXY3tf3FXqIN-168" edge="1">
          <mxGeometry relative="1" as="geometry" />
        </mxCell>
        <mxCell id="_XPZTrRJgXY3tf3FXqIN-189" style="rounded=0;orthogonalLoop=1;jettySize=auto;html=1;entryX=0;entryY=0.5;entryDx=0;entryDy=0;" parent="_XPZTrRJgXY3tf3FXqIN-87" source="_XPZTrRJgXY3tf3FXqIN-191" target="_XPZTrRJgXY3tf3FXqIN-171" edge="1">
          <mxGeometry relative="1" as="geometry" />
        </mxCell>
        <mxCell id="_XPZTrRJgXY3tf3FXqIN-190" style="rounded=0;orthogonalLoop=1;jettySize=auto;html=1;entryX=0;entryY=0.5;entryDx=0;entryDy=0;" parent="_XPZTrRJgXY3tf3FXqIN-87" source="_XPZTrRJgXY3tf3FXqIN-191" target="_XPZTrRJgXY3tf3FXqIN-172" edge="1">
          <mxGeometry relative="1" as="geometry" />
        </mxCell>
        <mxCell id="_XPZTrRJgXY3tf3FXqIN-191" value="staff" style="shape=umlActor;verticalLabelPosition=bottom;verticalAlign=top;html=1;" parent="_XPZTrRJgXY3tf3FXqIN-87" vertex="1">
          <mxGeometry x="50" y="380" width="30" height="60" as="geometry" />
        </mxCell>
        <mxCell id="_XPZTrRJgXY3tf3FXqIN-180" value="extend" style="rounded=0;orthogonalLoop=1;jettySize=auto;html=1;dashed=1;entryX=0.382;entryY=0.075;entryDx=0;entryDy=0;entryPerimeter=0;" parent="_XPZTrRJgXY3tf3FXqIN-87" source="_XPZTrRJgXY3tf3FXqIN-181" target="_XPZTrRJgXY3tf3FXqIN-282" edge="1">
          <mxGeometry relative="1" as="geometry">
            <mxPoint x="567.96" y="348.3225000000002" as="targetPoint" />
          </mxGeometry>
        </mxCell>
        <mxCell id="_XPZTrRJgXY3tf3FXqIN-271" style="rounded=0;orthogonalLoop=1;jettySize=auto;html=1;entryX=0;entryY=1;entryDx=0;entryDy=0;dashed=1;" parent="_XPZTrRJgXY3tf3FXqIN-87" source="_XPZTrRJgXY3tf3FXqIN-177" target="_XPZTrRJgXY3tf3FXqIN-186" edge="1">
          <mxGeometry relative="1" as="geometry" />
        </mxCell>
        <mxCell id="_XPZTrRJgXY3tf3FXqIN-288" value="&amp;lt;&amp;lt; include &amp;gt;&amp;gt;" style="rounded=0;orthogonalLoop=1;jettySize=auto;html=1;entryX=0.5;entryY=1;entryDx=0;entryDy=0;dashed=1;" parent="_XPZTrRJgXY3tf3FXqIN-87" source="_XPZTrRJgXY3tf3FXqIN-177" target="_XPZTrRJgXY3tf3FXqIN-175" edge="1">
          <mxGeometry relative="1" as="geometry" />
        </mxCell>
        <mxCell id="AbeIB3ET5EiKMsJKSj-X-211" value="extend" style="rounded=0;orthogonalLoop=1;jettySize=auto;html=1;dashed=1;endArrow=none;endFill=0;startArrow=classic;startFill=1;" parent="_XPZTrRJgXY3tf3FXqIN-87" source="_XPZTrRJgXY3tf3FXqIN-177" target="AbeIB3ET5EiKMsJKSj-X-210" edge="1">
          <mxGeometry relative="1" as="geometry" />
        </mxCell>
        <mxCell id="_XPZTrRJgXY3tf3FXqIN-177" value="enter phone number" style="ellipse;html=1;whiteSpace=wrap;" parent="_XPZTrRJgXY3tf3FXqIN-87" vertex="1">
          <mxGeometry x="335" y="510" width="150" height="45" as="geometry" />
        </mxCell>
        <mxCell id="_XPZTrRJgXY3tf3FXqIN-270" style="rounded=0;orthogonalLoop=1;jettySize=auto;html=1;entryX=0;entryY=0;entryDx=0;entryDy=0;dashed=1;" parent="_XPZTrRJgXY3tf3FXqIN-87" source="_XPZTrRJgXY3tf3FXqIN-175" target="_XPZTrRJgXY3tf3FXqIN-186" edge="1">
          <mxGeometry relative="1" as="geometry" />
        </mxCell>
        <mxCell id="_XPZTrRJgXY3tf3FXqIN-268" style="rounded=0;orthogonalLoop=1;jettySize=auto;html=1;entryX=0;entryY=0.5;entryDx=0;entryDy=0;dashed=1;" parent="_XPZTrRJgXY3tf3FXqIN-87" source="_XPZTrRJgXY3tf3FXqIN-171" target="_XPZTrRJgXY3tf3FXqIN-177" edge="1">
          <mxGeometry relative="1" as="geometry" />
        </mxCell>
        <mxCell id="_XPZTrRJgXY3tf3FXqIN-172" value="payment" style="ellipse;html=1;whiteSpace=wrap;" parent="_XPZTrRJgXY3tf3FXqIN-87" vertex="1">
          <mxGeometry x="180" y="610" width="95" height="50" as="geometry" />
        </mxCell>
        <mxCell id="_XPZTrRJgXY3tf3FXqIN-279" value="&amp;lt;&amp;lt; include &amp;gt;&amp;gt;" style="rounded=0;orthogonalLoop=1;jettySize=auto;html=1;entryX=0.5;entryY=0;entryDx=0;entryDy=0;dashed=1;" parent="_XPZTrRJgXY3tf3FXqIN-87" source="_XPZTrRJgXY3tf3FXqIN-171" target="_XPZTrRJgXY3tf3FXqIN-172" edge="1">
          <mxGeometry relative="1" as="geometry" />
        </mxCell>
        <mxCell id="_XPZTrRJgXY3tf3FXqIN-283" value="" style="rounded=0;orthogonalLoop=1;jettySize=auto;html=1;dashed=1;exitX=1;exitY=0.5;exitDx=0;exitDy=0;" parent="_XPZTrRJgXY3tf3FXqIN-87" source="_XPZTrRJgXY3tf3FXqIN-172" target="_XPZTrRJgXY3tf3FXqIN-282" edge="1">
          <mxGeometry relative="1" as="geometry">
            <mxPoint x="445" y="645" as="sourcePoint" />
          </mxGeometry>
        </mxCell>
        <mxCell id="_XPZTrRJgXY3tf3FXqIN-282" value="estimated amount" style="ellipse;html=1;whiteSpace=wrap;" parent="_XPZTrRJgXY3tf3FXqIN-87" vertex="1">
          <mxGeometry x="405" y="620" width="95" height="50" as="geometry" />
        </mxCell>
        <mxCell id="_XPZTrRJgXY3tf3FXqIN-286" style="rounded=0;orthogonalLoop=1;jettySize=auto;html=1;entryX=0;entryY=0.5;entryDx=0;entryDy=0;dashed=1;" parent="_XPZTrRJgXY3tf3FXqIN-87" source="_XPZTrRJgXY3tf3FXqIN-184" target="_XPZTrRJgXY3tf3FXqIN-185" edge="1">
          <mxGeometry relative="1" as="geometry" />
        </mxCell>
        <mxCell id="_XPZTrRJgXY3tf3FXqIN-287" value="extend" style="rounded=0;orthogonalLoop=1;jettySize=auto;html=1;entryX=1;entryY=0.5;entryDx=0;entryDy=0;dashed=1;" parent="_XPZTrRJgXY3tf3FXqIN-87" source="_XPZTrRJgXY3tf3FXqIN-184" target="_XPZTrRJgXY3tf3FXqIN-282" edge="1">
          <mxGeometry relative="1" as="geometry" />
        </mxCell>
        <mxCell id="_XPZTrRJgXY3tf3FXqIN-184" value="confirm order" style="ellipse;html=1;whiteSpace=wrap;" parent="_XPZTrRJgXY3tf3FXqIN-87" vertex="1">
          <mxGeometry x="720" y="630" width="100" height="40" as="geometry" />
        </mxCell>
        <mxCell id="AbeIB3ET5EiKMsJKSj-X-208" value="" style="rounded=0;orthogonalLoop=1;jettySize=auto;html=1;dashed=1;" parent="_XPZTrRJgXY3tf3FXqIN-87" source="_XPZTrRJgXY3tf3FXqIN-175" target="AbeIB3ET5EiKMsJKSj-X-207" edge="1">
          <mxGeometry relative="1" as="geometry" />
        </mxCell>
        <mxCell id="_XPZTrRJgXY3tf3FXqIN-175" value="choose id and size item" style="ellipse;html=1;whiteSpace=wrap;" parent="_XPZTrRJgXY3tf3FXqIN-87" vertex="1">
          <mxGeometry x="333.75" y="280" width="152.5" height="45" as="geometry" />
        </mxCell>
        <mxCell id="_XPZTrRJgXY3tf3FXqIN-170" style="rounded=0;orthogonalLoop=1;jettySize=auto;html=1;entryX=0;entryY=0.5;entryDx=0;entryDy=0;dashed=1;" parent="_XPZTrRJgXY3tf3FXqIN-87" source="_XPZTrRJgXY3tf3FXqIN-171" target="_XPZTrRJgXY3tf3FXqIN-175" edge="1">
          <mxGeometry relative="1" as="geometry" />
        </mxCell>
        <mxCell id="_XPZTrRJgXY3tf3FXqIN-181" value="cancel order" style="ellipse;html=1;whiteSpace=wrap;" parent="_XPZTrRJgXY3tf3FXqIN-87" vertex="1">
          <mxGeometry x="670" y="550" width="100" height="40" as="geometry" />
        </mxCell>
        <mxCell id="AbeIB3ET5EiKMsJKSj-X-207" value="create and add bill to database" style="ellipse;html=1;whiteSpace=wrap;" parent="_XPZTrRJgXY3tf3FXqIN-87" vertex="1">
          <mxGeometry x="590" y="280" width="152.5" height="45" as="geometry" />
        </mxCell>
        <mxCell id="AbeIB3ET5EiKMsJKSj-X-210" value="create new customer" style="ellipse;html=1;whiteSpace=wrap;" parent="_XPZTrRJgXY3tf3FXqIN-87" vertex="1">
          <mxGeometry x="590" y="500" width="115" height="45" as="geometry" />
        </mxCell>
        <mxCell id="_XPZTrRJgXY3tf3FXqIN-186" value="update" style="ellipse;html=1;whiteSpace=wrap;" parent="_XPZTrRJgXY3tf3FXqIN-87" vertex="1">
          <mxGeometry x="500" y="400" width="100" height="40" as="geometry" />
        </mxCell>
        <mxCell id="_XPZTrRJgXY3tf3FXqIN-12" value="payment" style="swimlane;whiteSpace=wrap;html=1;strokeWidth=2;" parent="1" vertex="1">
          <mxGeometry x="4560" y="-1790" width="800" height="1870" as="geometry">
            <mxRectangle x="40" y="75" width="80" height="30" as="alternateBounds" />
          </mxGeometry>
        </mxCell>
        <mxCell id="_XPZTrRJgXY3tf3FXqIN-13" value="" style="ellipse;html=1;shape=startState;fillColor=#000000;strokeColor=#ff0000;" parent="_XPZTrRJgXY3tf3FXqIN-12" vertex="1">
          <mxGeometry x="265" y="70" width="30" height="30" as="geometry" />
        </mxCell>
        <mxCell id="_XPZTrRJgXY3tf3FXqIN-14" value="" style="edgeStyle=orthogonalEdgeStyle;html=1;verticalAlign=bottom;endArrow=open;endSize=8;strokeColor=#ff0000;rounded=0;entryX=0.5;entryY=0;entryDx=0;entryDy=0;" parent="_XPZTrRJgXY3tf3FXqIN-12" source="_XPZTrRJgXY3tf3FXqIN-13" target="AbeIB3ET5EiKMsJKSj-X-214" edge="1">
          <mxGeometry relative="1" as="geometry">
            <mxPoint x="280" y="160" as="targetPoint" />
          </mxGeometry>
        </mxCell>
        <mxCell id="_XPZTrRJgXY3tf3FXqIN-20" value="" style="ellipse;html=1;shape=endState;fillColor=#000000;strokeColor=#ff0000;" parent="_XPZTrRJgXY3tf3FXqIN-12" vertex="1">
          <mxGeometry x="340" y="1770" width="30" height="30" as="geometry" />
        </mxCell>
        <mxCell id="AbeIB3ET5EiKMsJKSj-X-214" value="search order by ID" style="whiteSpace=wrap;html=1;fillColor=#ffffc0;strokeColor=#ff0000;fontColor=#000000;rounded=1;arcSize=40;" parent="_XPZTrRJgXY3tf3FXqIN-12" vertex="1">
          <mxGeometry x="220" y="270" width="120" height="60" as="geometry" />
        </mxCell>
        <mxCell id="n4XFdYIGqCoD1R6GZbM6-8" value="" style="edgeStyle=orthogonalEdgeStyle;rounded=0;orthogonalLoop=1;jettySize=auto;html=1;" edge="1" parent="_XPZTrRJgXY3tf3FXqIN-12" source="n4XFdYIGqCoD1R6GZbM6-3" target="n4XFdYIGqCoD1R6GZbM6-7">
          <mxGeometry relative="1" as="geometry" />
        </mxCell>
        <mxCell id="n4XFdYIGqCoD1R6GZbM6-3" value="" style="rhombus;whiteSpace=wrap;html=1;fillColor=#ffffc0;strokeColor=#ff0000;fontColor=#000000;rounded=1;arcSize=40;" vertex="1" parent="_XPZTrRJgXY3tf3FXqIN-12">
          <mxGeometry x="240" y="410" width="80" height="80" as="geometry" />
        </mxCell>
        <mxCell id="n4XFdYIGqCoD1R6GZbM6-4" value="" style="edgeStyle=orthogonalEdgeStyle;rounded=0;orthogonalLoop=1;jettySize=auto;html=1;entryX=0.5;entryY=0;entryDx=0;entryDy=0;exitX=0.5;exitY=1;exitDx=0;exitDy=0;" edge="1" parent="_XPZTrRJgXY3tf3FXqIN-12" source="AbeIB3ET5EiKMsJKSj-X-214" target="n4XFdYIGqCoD1R6GZbM6-3">
          <mxGeometry relative="1" as="geometry">
            <mxPoint x="4840" y="-1460" as="sourcePoint" />
            <mxPoint x="4840" y="-20" as="targetPoint" />
          </mxGeometry>
        </mxCell>
        <mxCell id="n4XFdYIGqCoD1R6GZbM6-16" style="edgeStyle=orthogonalEdgeStyle;rounded=0;orthogonalLoop=1;jettySize=auto;html=1;entryX=0.829;entryY=0.014;entryDx=0;entryDy=0;entryPerimeter=0;" edge="1" parent="_XPZTrRJgXY3tf3FXqIN-12" source="n4XFdYIGqCoD1R6GZbM6-7" target="n4XFdYIGqCoD1R6GZbM6-14">
          <mxGeometry relative="1" as="geometry">
            <Array as="points">
              <mxPoint x="570" y="333" />
            </Array>
          </mxGeometry>
        </mxCell>
        <mxCell id="n4XFdYIGqCoD1R6GZbM6-7" value="show message&quot;invalid orderID&quot;" style="whiteSpace=wrap;html=1;fillColor=#ffffc0;strokeColor=#ff0000;fontColor=#000000;rounded=1;arcSize=40;" vertex="1" parent="_XPZTrRJgXY3tf3FXqIN-12">
          <mxGeometry x="490" y="420" width="150" height="60" as="geometry" />
        </mxCell>
        <mxCell id="n4XFdYIGqCoD1R6GZbM6-11" value="" style="edgeStyle=orthogonalEdgeStyle;rounded=0;orthogonalLoop=1;jettySize=auto;html=1;entryX=0.5;entryY=0;entryDx=0;entryDy=0;exitX=0.5;exitY=1;exitDx=0;exitDy=0;" edge="1" parent="_XPZTrRJgXY3tf3FXqIN-12" source="n4XFdYIGqCoD1R6GZbM6-3" target="n4XFdYIGqCoD1R6GZbM6-1">
          <mxGeometry relative="1" as="geometry">
            <mxPoint x="4840" y="-1300" as="sourcePoint" />
            <mxPoint x="4840" y="-20" as="targetPoint" />
          </mxGeometry>
        </mxCell>
        <mxCell id="n4XFdYIGqCoD1R6GZbM6-55" value="" style="edgeStyle=orthogonalEdgeStyle;rounded=0;orthogonalLoop=1;jettySize=auto;html=1;" edge="1" parent="_XPZTrRJgXY3tf3FXqIN-12" source="n4XFdYIGqCoD1R6GZbM6-1" target="n4XFdYIGqCoD1R6GZbM6-54">
          <mxGeometry relative="1" as="geometry" />
        </mxCell>
        <mxCell id="n4XFdYIGqCoD1R6GZbM6-1" value="" style="rhombus;whiteSpace=wrap;html=1;fillColor=#ffffc0;strokeColor=#ff0000;fontColor=#000000;rounded=1;arcSize=40;" vertex="1" parent="_XPZTrRJgXY3tf3FXqIN-12">
          <mxGeometry x="240" y="570" width="80" height="80" as="geometry" />
        </mxCell>
        <mxCell id="n4XFdYIGqCoD1R6GZbM6-14" value="" style="shape=line;html=1;strokeWidth=6;strokeColor=#ff0000;direction=south;" vertex="1" parent="_XPZTrRJgXY3tf3FXqIN-12">
          <mxGeometry x="470" y="250" width="10" height="100" as="geometry" />
        </mxCell>
        <mxCell id="n4XFdYIGqCoD1R6GZbM6-15" value="" style="edgeStyle=orthogonalEdgeStyle;html=1;verticalAlign=bottom;endArrow=open;endSize=8;strokeColor=#ff0000;rounded=0;entryX=1;entryY=0.5;entryDx=0;entryDy=0;" edge="1" source="n4XFdYIGqCoD1R6GZbM6-14" parent="_XPZTrRJgXY3tf3FXqIN-12" target="AbeIB3ET5EiKMsJKSj-X-214">
          <mxGeometry relative="1" as="geometry">
            <mxPoint x="410" y="360" as="targetPoint" />
          </mxGeometry>
        </mxCell>
        <mxCell id="n4XFdYIGqCoD1R6GZbM6-19" style="edgeStyle=orthogonalEdgeStyle;rounded=0;orthogonalLoop=1;jettySize=auto;html=1;entryX=0.353;entryY=0.014;entryDx=0;entryDy=0;entryPerimeter=0;" edge="1" parent="_XPZTrRJgXY3tf3FXqIN-12" source="n4XFdYIGqCoD1R6GZbM6-17" target="n4XFdYIGqCoD1R6GZbM6-14">
          <mxGeometry relative="1" as="geometry">
            <Array as="points">
              <mxPoint x="660" y="285" />
            </Array>
          </mxGeometry>
        </mxCell>
        <mxCell id="n4XFdYIGqCoD1R6GZbM6-17" value="show message&quot;invalid orderID&quot;" style="whiteSpace=wrap;html=1;fillColor=#ffffc0;strokeColor=#ff0000;fontColor=#000000;rounded=1;arcSize=40;" vertex="1" parent="_XPZTrRJgXY3tf3FXqIN-12">
          <mxGeometry x="580" y="580" width="150" height="60" as="geometry" />
        </mxCell>
        <mxCell id="n4XFdYIGqCoD1R6GZbM6-18" style="edgeStyle=orthogonalEdgeStyle;rounded=0;orthogonalLoop=1;jettySize=auto;html=1;entryX=0;entryY=0.5;entryDx=0;entryDy=0;" edge="1" parent="_XPZTrRJgXY3tf3FXqIN-12" source="n4XFdYIGqCoD1R6GZbM6-1" target="n4XFdYIGqCoD1R6GZbM6-17">
          <mxGeometry relative="1" as="geometry" />
        </mxCell>
        <mxCell id="n4XFdYIGqCoD1R6GZbM6-52" style="edgeStyle=orthogonalEdgeStyle;rounded=0;orthogonalLoop=1;jettySize=auto;html=1;entryX=0.837;entryY=0.233;entryDx=0;entryDy=0;entryPerimeter=0;" edge="1" parent="_XPZTrRJgXY3tf3FXqIN-12" source="n4XFdYIGqCoD1R6GZbM6-44" target="n4XFdYIGqCoD1R6GZbM6-50">
          <mxGeometry relative="1" as="geometry">
            <Array as="points">
              <mxPoint x="560" y="1630" />
              <mxPoint x="390" y="1630" />
            </Array>
          </mxGeometry>
        </mxCell>
        <mxCell id="n4XFdYIGqCoD1R6GZbM6-44" value="export invoice" style="whiteSpace=wrap;html=1;fillColor=#ffffc0;strokeColor=#ff0000;fontColor=#000000;rounded=1;arcSize=40;" vertex="1" parent="_XPZTrRJgXY3tf3FXqIN-12">
          <mxGeometry x="500" y="1470" width="120" height="60" as="geometry" />
        </mxCell>
        <mxCell id="n4XFdYIGqCoD1R6GZbM6-50" value="" style="shape=line;html=1;strokeWidth=6;strokeColor=#ff0000;" vertex="1" parent="_XPZTrRJgXY3tf3FXqIN-12">
          <mxGeometry x="302.5" y="1710" width="105" height="10" as="geometry" />
        </mxCell>
        <mxCell id="n4XFdYIGqCoD1R6GZbM6-51" value="" style="edgeStyle=orthogonalEdgeStyle;html=1;verticalAlign=bottom;endArrow=open;endSize=8;strokeColor=#ff0000;rounded=0;entryX=0.5;entryY=0;entryDx=0;entryDy=0;" edge="1" source="n4XFdYIGqCoD1R6GZbM6-50" parent="_XPZTrRJgXY3tf3FXqIN-12" target="_XPZTrRJgXY3tf3FXqIN-20">
          <mxGeometry relative="1" as="geometry">
            <mxPoint x="355" y="1800" as="targetPoint" />
          </mxGeometry>
        </mxCell>
        <mxCell id="n4XFdYIGqCoD1R6GZbM6-59" value="" style="edgeStyle=orthogonalEdgeStyle;rounded=0;orthogonalLoop=1;jettySize=auto;html=1;" edge="1" parent="_XPZTrRJgXY3tf3FXqIN-12" source="n4XFdYIGqCoD1R6GZbM6-54" target="n4XFdYIGqCoD1R6GZbM6-58">
          <mxGeometry relative="1" as="geometry" />
        </mxCell>
        <mxCell id="n4XFdYIGqCoD1R6GZbM6-54" value="+10% VAT" style="whiteSpace=wrap;html=1;fillColor=#ffffc0;strokeColor=#ff0000;fontColor=#000000;rounded=1;arcSize=40;" vertex="1" parent="_XPZTrRJgXY3tf3FXqIN-12">
          <mxGeometry x="220" y="710" width="120" height="60" as="geometry" />
        </mxCell>
        <mxCell id="n4XFdYIGqCoD1R6GZbM6-58" value="estimated amount" style="whiteSpace=wrap;html=1;fillColor=#ffffc0;strokeColor=#ff0000;fontColor=#000000;rounded=1;arcSize=40;" vertex="1" parent="_XPZTrRJgXY3tf3FXqIN-12">
          <mxGeometry x="220" y="850" width="120" height="60" as="geometry" />
        </mxCell>
        <mxCell id="_XPZTrRJgXY3tf3FXqIN-59" value="Login" style="swimlane;strokeWidth=2;" parent="1" vertex="1">
          <mxGeometry x="130" y="-1790" width="1090" height="780" as="geometry">
            <mxRectangle x="-110" y="60" width="70" height="30" as="alternateBounds" />
          </mxGeometry>
        </mxCell>
        <mxCell id="_XPZTrRJgXY3tf3FXqIN-60" value="" style="edgeStyle=orthogonalEdgeStyle;rounded=0;orthogonalLoop=1;jettySize=auto;html=1;entryX=1;entryY=0.5;entryDx=0;entryDy=0;exitX=0;exitY=0.5;exitDx=0;exitDy=0;" parent="_XPZTrRJgXY3tf3FXqIN-59" source="_XPZTrRJgXY3tf3FXqIN-78" target="_XPZTrRJgXY3tf3FXqIN-76" edge="1">
          <mxGeometry relative="1" as="geometry">
            <mxPoint x="480" y="270" as="sourcePoint" />
            <mxPoint x="280" y="270" as="targetPoint" />
          </mxGeometry>
        </mxCell>
        <mxCell id="_XPZTrRJgXY3tf3FXqIN-61" style="edgeStyle=orthogonalEdgeStyle;rounded=0;orthogonalLoop=1;jettySize=auto;html=1;entryX=0;entryY=0.5;entryDx=0;entryDy=0;exitX=0.5;exitY=0;exitDx=0;exitDy=0;" parent="_XPZTrRJgXY3tf3FXqIN-59" source="_XPZTrRJgXY3tf3FXqIN-76" target="_XPZTrRJgXY3tf3FXqIN-74" edge="1">
          <mxGeometry relative="1" as="geometry">
            <mxPoint x="220" y="240" as="sourcePoint" />
            <mxPoint x="450" y="150" as="targetPoint" />
            <Array as="points">
              <mxPoint x="220" y="250" />
              <mxPoint x="220" y="150" />
            </Array>
          </mxGeometry>
        </mxCell>
        <mxCell id="_XPZTrRJgXY3tf3FXqIN-62" value="[Invalid ID/password]" style="text;html=1;align=center;verticalAlign=middle;resizable=0;points=[];autosize=1;strokeColor=none;fillColor=none;" parent="_XPZTrRJgXY3tf3FXqIN-59" vertex="1">
          <mxGeometry x="310" y="240" width="130" height="30" as="geometry" />
        </mxCell>
        <mxCell id="_XPZTrRJgXY3tf3FXqIN-63" value="" style="edgeStyle=orthogonalEdgeStyle;rounded=0;orthogonalLoop=1;jettySize=auto;html=1;exitX=1;exitY=0.5;exitDx=0;exitDy=0;entryX=0;entryY=0.5;entryDx=0;entryDy=0;" parent="_XPZTrRJgXY3tf3FXqIN-59" source="_XPZTrRJgXY3tf3FXqIN-79" target="_XPZTrRJgXY3tf3FXqIN-75" edge="1">
          <mxGeometry relative="1" as="geometry">
            <mxPoint x="559.9333333333334" y="430.0666666666666" as="sourcePoint" />
            <mxPoint x="710" y="430.0666666666666" as="targetPoint" />
          </mxGeometry>
        </mxCell>
        <mxCell id="_XPZTrRJgXY3tf3FXqIN-64" value="" style="edgeStyle=orthogonalEdgeStyle;rounded=0;orthogonalLoop=1;jettySize=auto;html=1;exitX=0.5;exitY=1;exitDx=0;exitDy=0;entryX=0.5;entryY=0;entryDx=0;entryDy=0;" parent="_XPZTrRJgXY3tf3FXqIN-59" source="_XPZTrRJgXY3tf3FXqIN-79" target="_XPZTrRJgXY3tf3FXqIN-80" edge="1">
          <mxGeometry relative="1" as="geometry">
            <mxPoint x="520" y="470" as="sourcePoint" />
            <mxPoint x="520" y="560" as="targetPoint" />
          </mxGeometry>
        </mxCell>
        <mxCell id="_XPZTrRJgXY3tf3FXqIN-65" value="[Valid ID/password]" style="text;html=1;align=center;verticalAlign=middle;resizable=0;points=[];autosize=1;strokeColor=none;fillColor=none;" parent="_XPZTrRJgXY3tf3FXqIN-59" vertex="1">
          <mxGeometry x="520" y="330" width="130" height="30" as="geometry" />
        </mxCell>
        <mxCell id="_XPZTrRJgXY3tf3FXqIN-66" style="edgeStyle=orthogonalEdgeStyle;rounded=0;orthogonalLoop=1;jettySize=auto;html=1;entryX=1;entryY=0.5;entryDx=0;entryDy=0;exitX=0.5;exitY=0;exitDx=0;exitDy=0;" parent="_XPZTrRJgXY3tf3FXqIN-59" source="_XPZTrRJgXY3tf3FXqIN-75" target="_XPZTrRJgXY3tf3FXqIN-74" edge="1">
          <mxGeometry relative="1" as="geometry">
            <mxPoint x="840" y="401.25" as="sourcePoint" />
            <mxPoint x="610" y="150" as="targetPoint" />
            <Array as="points">
              <mxPoint x="840" y="395" />
              <mxPoint x="840" y="150" />
            </Array>
          </mxGeometry>
        </mxCell>
        <mxCell id="_XPZTrRJgXY3tf3FXqIN-67" value="[Valid ID/password in db]" style="text;html=1;align=center;verticalAlign=middle;resizable=0;points=[];autosize=1;strokeColor=none;fillColor=none;" parent="_XPZTrRJgXY3tf3FXqIN-59" vertex="1">
          <mxGeometry x="560" y="400" width="160" height="30" as="geometry" />
        </mxCell>
        <mxCell id="_XPZTrRJgXY3tf3FXqIN-68" style="rounded=0;orthogonalLoop=1;jettySize=auto;html=1;entryX=0.5;entryY=0;entryDx=0;entryDy=0;exitX=0.5;exitY=1;exitDx=0;exitDy=0;" parent="_XPZTrRJgXY3tf3FXqIN-59" source="_XPZTrRJgXY3tf3FXqIN-80" target="_XPZTrRJgXY3tf3FXqIN-72" edge="1">
          <mxGeometry relative="1" as="geometry">
            <mxPoint x="520" y="600" as="sourcePoint" />
            <mxPoint x="520" y="660" as="targetPoint" />
          </mxGeometry>
        </mxCell>
        <mxCell id="_XPZTrRJgXY3tf3FXqIN-69" value="[Exists user in db]" style="text;html=1;align=center;verticalAlign=middle;resizable=0;points=[];autosize=1;strokeColor=none;fillColor=none;" parent="_XPZTrRJgXY3tf3FXqIN-59" vertex="1">
          <mxGeometry x="520" y="500" width="120" height="30" as="geometry" />
        </mxCell>
        <mxCell id="_XPZTrRJgXY3tf3FXqIN-70" value="" style="ellipse;html=1;shape=startState;fillColor=#000000;strokeColor=#ff0000;" parent="_XPZTrRJgXY3tf3FXqIN-59" vertex="1">
          <mxGeometry x="505" y="40" width="30" height="30" as="geometry" />
        </mxCell>
        <mxCell id="_XPZTrRJgXY3tf3FXqIN-71" value="" style="edgeStyle=orthogonalEdgeStyle;html=1;verticalAlign=bottom;endArrow=open;endSize=8;strokeColor=#ff0000;rounded=0;entryX=0.5;entryY=0;entryDx=0;entryDy=0;" parent="_XPZTrRJgXY3tf3FXqIN-59" source="_XPZTrRJgXY3tf3FXqIN-70" target="_XPZTrRJgXY3tf3FXqIN-74" edge="1">
          <mxGeometry relative="1" as="geometry">
            <mxPoint x="520" y="130" as="targetPoint" />
          </mxGeometry>
        </mxCell>
        <mxCell id="_XPZTrRJgXY3tf3FXqIN-72" value="" style="ellipse;html=1;shape=endState;fillColor=#000000;strokeColor=#ff0000;" parent="_XPZTrRJgXY3tf3FXqIN-59" vertex="1">
          <mxGeometry x="505" y="660" width="30" height="30" as="geometry" />
        </mxCell>
        <mxCell id="_XPZTrRJgXY3tf3FXqIN-73" value="" style="edgeStyle=orthogonalEdgeStyle;rounded=0;orthogonalLoop=1;jettySize=auto;html=1;entryX=0.5;entryY=0;entryDx=0;entryDy=0;" parent="_XPZTrRJgXY3tf3FXqIN-59" source="_XPZTrRJgXY3tf3FXqIN-74" target="_XPZTrRJgXY3tf3FXqIN-78" edge="1">
          <mxGeometry relative="1" as="geometry">
            <mxPoint x="520" y="230" as="targetPoint" />
          </mxGeometry>
        </mxCell>
        <mxCell id="_XPZTrRJgXY3tf3FXqIN-74" value="Input ID and password&amp;nbsp;" style="rounded=1;whiteSpace=wrap;html=1;arcSize=40;fontColor=#000000;fillColor=#ffffc0;strokeColor=#ff0000;" parent="_XPZTrRJgXY3tf3FXqIN-59" vertex="1">
          <mxGeometry x="445" y="130" width="150" height="40" as="geometry" />
        </mxCell>
        <mxCell id="_XPZTrRJgXY3tf3FXqIN-75" value="show message&lt;br&gt;&quot;Invalid ID/password&quot;" style="rounded=1;whiteSpace=wrap;html=1;arcSize=40;fontColor=#000000;fillColor=#FFFFC0;strokeColor=#ff0000;" parent="_XPZTrRJgXY3tf3FXqIN-59" vertex="1">
          <mxGeometry x="730" y="395" width="200" height="70" as="geometry" />
        </mxCell>
        <mxCell id="_XPZTrRJgXY3tf3FXqIN-76" value="Input again" style="rounded=1;whiteSpace=wrap;html=1;arcSize=40;fontColor=#000000;fillColor=#ffffc0;strokeColor=#ff0000;" parent="_XPZTrRJgXY3tf3FXqIN-59" vertex="1">
          <mxGeometry x="160" y="250" width="120" height="40" as="geometry" />
        </mxCell>
        <mxCell id="_XPZTrRJgXY3tf3FXqIN-77" style="edgeStyle=orthogonalEdgeStyle;rounded=0;orthogonalLoop=1;jettySize=auto;html=1;entryX=0.5;entryY=0;entryDx=0;entryDy=0;" parent="_XPZTrRJgXY3tf3FXqIN-59" source="_XPZTrRJgXY3tf3FXqIN-78" target="_XPZTrRJgXY3tf3FXqIN-79" edge="1">
          <mxGeometry relative="1" as="geometry" />
        </mxCell>
        <mxCell id="_XPZTrRJgXY3tf3FXqIN-78" value="" style="rhombus;whiteSpace=wrap;html=1;fillColor=#ffffc0;strokeColor=#ff0000;fontColor=#000000;rounded=1;arcSize=40;" parent="_XPZTrRJgXY3tf3FXqIN-59" vertex="1">
          <mxGeometry x="480" y="230" width="80" height="80" as="geometry" />
        </mxCell>
        <mxCell id="_XPZTrRJgXY3tf3FXqIN-79" value="" style="rhombus;whiteSpace=wrap;html=1;fillColor=#ffffc0;strokeColor=#ff0000;fontColor=#000000;rounded=1;arcSize=40;" parent="_XPZTrRJgXY3tf3FXqIN-59" vertex="1">
          <mxGeometry x="480" y="390" width="80" height="80" as="geometry" />
        </mxCell>
        <mxCell id="_XPZTrRJgXY3tf3FXqIN-80" value="show main menu" style="rounded=1;whiteSpace=wrap;html=1;arcSize=40;fontColor=#000000;fillColor=#ffffc0;strokeColor=#ff0000;" parent="_XPZTrRJgXY3tf3FXqIN-59" vertex="1">
          <mxGeometry x="445" y="560" width="150" height="40" as="geometry" />
        </mxCell>
        <mxCell id="AbeIB3ET5EiKMsJKSj-X-104" value="Create order" style="swimlane;startSize=30;" parent="1" vertex="1">
          <mxGeometry x="1830" y="-1780" width="1760" height="3530" as="geometry">
            <mxRectangle x="1830" y="-1780" width="110" height="30" as="alternateBounds" />
          </mxGeometry>
        </mxCell>
        <mxCell id="AbeIB3ET5EiKMsJKSj-X-105" value="" style="ellipse;html=1;shape=startState;fillColor=#000000;strokeColor=#ff0000;" parent="AbeIB3ET5EiKMsJKSj-X-104" vertex="1">
          <mxGeometry x="743" y="70" width="30" height="30" as="geometry" />
        </mxCell>
        <mxCell id="AbeIB3ET5EiKMsJKSj-X-106" value="" style="edgeStyle=orthogonalEdgeStyle;html=1;verticalAlign=bottom;endArrow=open;endSize=8;strokeColor=#ff0000;rounded=0;entryX=0.5;entryY=0;entryDx=0;entryDy=0;" parent="AbeIB3ET5EiKMsJKSj-X-104" source="AbeIB3ET5EiKMsJKSj-X-105" target="AbeIB3ET5EiKMsJKSj-X-108" edge="1">
          <mxGeometry relative="1" as="geometry">
            <mxPoint x="758" y="160" as="targetPoint" />
          </mxGeometry>
        </mxCell>
        <mxCell id="AbeIB3ET5EiKMsJKSj-X-107" value="" style="edgeStyle=orthogonalEdgeStyle;rounded=0;orthogonalLoop=1;jettySize=auto;html=1;" parent="AbeIB3ET5EiKMsJKSj-X-104" source="AbeIB3ET5EiKMsJKSj-X-108" target="AbeIB3ET5EiKMsJKSj-X-110" edge="1">
          <mxGeometry relative="1" as="geometry" />
        </mxCell>
        <mxCell id="AbeIB3ET5EiKMsJKSj-X-108" value="Create order" style="rounded=1;whiteSpace=wrap;html=1;arcSize=40;fontColor=#000000;fillColor=#ffffc0;strokeColor=#ff0000;" parent="AbeIB3ET5EiKMsJKSj-X-104" vertex="1">
          <mxGeometry x="698" y="140" width="120" height="40" as="geometry" />
        </mxCell>
        <mxCell id="AbeIB3ET5EiKMsJKSj-X-109" value="" style="edgeStyle=orthogonalEdgeStyle;rounded=0;orthogonalLoop=1;jettySize=auto;html=1;" parent="AbeIB3ET5EiKMsJKSj-X-104" source="AbeIB3ET5EiKMsJKSj-X-110" target="AbeIB3ET5EiKMsJKSj-X-113" edge="1">
          <mxGeometry relative="1" as="geometry" />
        </mxCell>
        <mxCell id="AbeIB3ET5EiKMsJKSj-X-110" value="input phone number" style="whiteSpace=wrap;html=1;fillColor=#ffffc0;strokeColor=#ff0000;fontColor=#000000;rounded=1;arcSize=40;" parent="AbeIB3ET5EiKMsJKSj-X-104" vertex="1">
          <mxGeometry x="698" y="220" width="120" height="60" as="geometry" />
        </mxCell>
        <mxCell id="AbeIB3ET5EiKMsJKSj-X-111" value="" style="edgeStyle=orthogonalEdgeStyle;rounded=0;orthogonalLoop=1;jettySize=auto;html=1;" parent="AbeIB3ET5EiKMsJKSj-X-104" source="AbeIB3ET5EiKMsJKSj-X-113" target="AbeIB3ET5EiKMsJKSj-X-116" edge="1">
          <mxGeometry relative="1" as="geometry" />
        </mxCell>
        <mxCell id="AbeIB3ET5EiKMsJKSj-X-112" value="" style="edgeStyle=orthogonalEdgeStyle;rounded=0;orthogonalLoop=1;jettySize=auto;html=1;entryX=1;entryY=0.5;entryDx=0;entryDy=0;" parent="AbeIB3ET5EiKMsJKSj-X-104" source="AbeIB3ET5EiKMsJKSj-X-113" target="AbeIB3ET5EiKMsJKSj-X-119" edge="1">
          <mxGeometry relative="1" as="geometry">
            <Array as="points">
              <mxPoint x="998" y="370" />
              <mxPoint x="998" y="530" />
            </Array>
          </mxGeometry>
        </mxCell>
        <mxCell id="AbeIB3ET5EiKMsJKSj-X-113" value="" style="rhombus;whiteSpace=wrap;html=1;fillColor=#ffffc0;strokeColor=#ff0000;fontColor=#000000;rounded=1;arcSize=40;" parent="AbeIB3ET5EiKMsJKSj-X-104" vertex="1">
          <mxGeometry x="718" y="330" width="80" height="80" as="geometry" />
        </mxCell>
        <mxCell id="AbeIB3ET5EiKMsJKSj-X-114" style="edgeStyle=orthogonalEdgeStyle;rounded=0;orthogonalLoop=1;jettySize=auto;html=1;entryX=0.577;entryY=1.001;entryDx=0;entryDy=0;entryPerimeter=0;dashed=1;endArrow=none;endFill=0;" parent="AbeIB3ET5EiKMsJKSj-X-104" source="AbeIB3ET5EiKMsJKSj-X-116" target="AbeIB3ET5EiKMsJKSj-X-117" edge="1">
          <mxGeometry relative="1" as="geometry" />
        </mxCell>
        <mxCell id="AbeIB3ET5EiKMsJKSj-X-115" style="edgeStyle=orthogonalEdgeStyle;rounded=0;orthogonalLoop=1;jettySize=auto;html=1;entryX=0;entryY=0.5;entryDx=0;entryDy=0;" parent="AbeIB3ET5EiKMsJKSj-X-104" source="AbeIB3ET5EiKMsJKSj-X-116" target="AbeIB3ET5EiKMsJKSj-X-119" edge="1">
          <mxGeometry relative="1" as="geometry">
            <Array as="points">
              <mxPoint x="538" y="530" />
            </Array>
          </mxGeometry>
        </mxCell>
        <mxCell id="AbeIB3ET5EiKMsJKSj-X-116" value="new customer" style="whiteSpace=wrap;html=1;fillColor=#ffffc0;strokeColor=#ff0000;fontColor=#000000;rounded=1;arcSize=40;" parent="AbeIB3ET5EiKMsJKSj-X-104" vertex="1">
          <mxGeometry x="478" y="340" width="120" height="60" as="geometry" />
        </mxCell>
        <mxCell id="AbeIB3ET5EiKMsJKSj-X-117" value="Name customer, phone number" style="shape=note2;boundedLbl=1;whiteSpace=wrap;html=1;size=25;verticalAlign=top;align=center;fillColor=#FFFFC0;strokeColor=#FF0000;" parent="AbeIB3ET5EiKMsJKSj-X-104" vertex="1">
          <mxGeometry x="430" y="200" width="170" height="80" as="geometry" />
        </mxCell>
        <mxCell id="AbeIB3ET5EiKMsJKSj-X-118" value="" style="edgeStyle=orthogonalEdgeStyle;rounded=0;orthogonalLoop=1;jettySize=auto;html=1;" parent="AbeIB3ET5EiKMsJKSj-X-104" source="AbeIB3ET5EiKMsJKSj-X-119" target="AbeIB3ET5EiKMsJKSj-X-123" edge="1">
          <mxGeometry relative="1" as="geometry" />
        </mxCell>
        <mxCell id="AbeIB3ET5EiKMsJKSj-X-119" value="show list brand name and message &quot;choose brand you want to buy or choose 0 to exit&quot;" style="whiteSpace=wrap;html=1;fillColor=#ffffc0;strokeColor=#ff0000;fontColor=#000000;rounded=1;arcSize=40;" parent="AbeIB3ET5EiKMsJKSj-X-104" vertex="1">
          <mxGeometry x="593" y="500" width="320" height="60" as="geometry" />
        </mxCell>
        <mxCell id="AbeIB3ET5EiKMsJKSj-X-120" value="Not exist in database" style="text;html=1;align=center;verticalAlign=middle;resizable=0;points=[];autosize=1;strokeColor=none;fillColor=none;" parent="AbeIB3ET5EiKMsJKSj-X-104" vertex="1">
          <mxGeometry x="588" y="340" width="140" height="30" as="geometry" />
        </mxCell>
        <mxCell id="AbeIB3ET5EiKMsJKSj-X-121" value="Exist in database" style="text;html=1;align=center;verticalAlign=middle;resizable=0;points=[];autosize=1;strokeColor=none;fillColor=none;" parent="AbeIB3ET5EiKMsJKSj-X-104" vertex="1">
          <mxGeometry x="803" y="340" width="110" height="30" as="geometry" />
        </mxCell>
        <mxCell id="AbeIB3ET5EiKMsJKSj-X-122" value="" style="edgeStyle=orthogonalEdgeStyle;rounded=0;orthogonalLoop=1;jettySize=auto;html=1;" parent="AbeIB3ET5EiKMsJKSj-X-104" source="AbeIB3ET5EiKMsJKSj-X-200" target="AbeIB3ET5EiKMsJKSj-X-126" edge="1">
          <mxGeometry relative="1" as="geometry" />
        </mxCell>
        <mxCell id="AbeIB3ET5EiKMsJKSj-X-123" value="input choose" style="whiteSpace=wrap;html=1;fillColor=#ffffc0;strokeColor=#ff0000;fontColor=#000000;rounded=1;arcSize=40;" parent="AbeIB3ET5EiKMsJKSj-X-104" vertex="1">
          <mxGeometry x="693" y="630" width="120" height="60" as="geometry" />
        </mxCell>
        <mxCell id="AbeIB3ET5EiKMsJKSj-X-124" value="" style="edgeStyle=orthogonalEdgeStyle;rounded=0;orthogonalLoop=1;jettySize=auto;html=1;" parent="AbeIB3ET5EiKMsJKSj-X-104" source="AbeIB3ET5EiKMsJKSj-X-126" target="AbeIB3ET5EiKMsJKSj-X-128" edge="1">
          <mxGeometry relative="1" as="geometry" />
        </mxCell>
        <mxCell id="AbeIB3ET5EiKMsJKSj-X-125" value="" style="edgeStyle=orthogonalEdgeStyle;rounded=0;orthogonalLoop=1;jettySize=auto;html=1;" parent="AbeIB3ET5EiKMsJKSj-X-104" source="AbeIB3ET5EiKMsJKSj-X-126" target="AbeIB3ET5EiKMsJKSj-X-132" edge="1">
          <mxGeometry relative="1" as="geometry" />
        </mxCell>
        <mxCell id="AbeIB3ET5EiKMsJKSj-X-126" value="" style="rhombus;whiteSpace=wrap;html=1;fillColor=#ffffc0;strokeColor=#ff0000;fontColor=#000000;rounded=1;arcSize=40;" parent="AbeIB3ET5EiKMsJKSj-X-104" vertex="1">
          <mxGeometry x="717" y="940" width="72" height="80" as="geometry" />
        </mxCell>
        <mxCell id="AbeIB3ET5EiKMsJKSj-X-127" style="edgeStyle=orthogonalEdgeStyle;rounded=0;orthogonalLoop=1;jettySize=auto;html=1;" parent="AbeIB3ET5EiKMsJKSj-X-104" source="AbeIB3ET5EiKMsJKSj-X-128" target="AbeIB3ET5EiKMsJKSj-X-202" edge="1">
          <mxGeometry relative="1" as="geometry">
            <Array as="points">
              <mxPoint x="440" y="700" />
            </Array>
          </mxGeometry>
        </mxCell>
        <mxCell id="AbeIB3ET5EiKMsJKSj-X-128" value="show message&quot;invalid choice pls re-enter&quot;" style="whiteSpace=wrap;html=1;fillColor=#ffffc0;strokeColor=#ff0000;fontColor=#000000;rounded=1;arcSize=40;" parent="AbeIB3ET5EiKMsJKSj-X-104" vertex="1">
          <mxGeometry x="402" y="950" width="127" height="60" as="geometry" />
        </mxCell>
        <mxCell id="AbeIB3ET5EiKMsJKSj-X-129" value="invalid choice" style="text;html=1;align=center;verticalAlign=middle;resizable=0;points=[];autosize=1;strokeColor=none;fillColor=none;" parent="AbeIB3ET5EiKMsJKSj-X-104" vertex="1">
          <mxGeometry x="612" y="950" width="100" height="30" as="geometry" />
        </mxCell>
        <mxCell id="AbeIB3ET5EiKMsJKSj-X-130" value="" style="edgeStyle=orthogonalEdgeStyle;rounded=0;orthogonalLoop=1;jettySize=auto;html=1;" parent="AbeIB3ET5EiKMsJKSj-X-104" source="AbeIB3ET5EiKMsJKSj-X-132" target="AbeIB3ET5EiKMsJKSj-X-134" edge="1">
          <mxGeometry relative="1" as="geometry" />
        </mxCell>
        <mxCell id="AbeIB3ET5EiKMsJKSj-X-131" value="" style="edgeStyle=orthogonalEdgeStyle;rounded=0;orthogonalLoop=1;jettySize=auto;html=1;" parent="AbeIB3ET5EiKMsJKSj-X-104" source="AbeIB3ET5EiKMsJKSj-X-132" target="AbeIB3ET5EiKMsJKSj-X-137" edge="1">
          <mxGeometry relative="1" as="geometry" />
        </mxCell>
        <mxCell id="AbeIB3ET5EiKMsJKSj-X-132" value="" style="rhombus;whiteSpace=wrap;html=1;fillColor=#ffffc0;strokeColor=#ff0000;fontColor=#000000;rounded=1;arcSize=40;" parent="AbeIB3ET5EiKMsJKSj-X-104" vertex="1">
          <mxGeometry x="717" y="1100" width="72" height="80" as="geometry" />
        </mxCell>
        <mxCell id="AbeIB3ET5EiKMsJKSj-X-133" value="valid choice" style="text;html=1;align=center;verticalAlign=middle;resizable=0;points=[];autosize=1;strokeColor=none;fillColor=none;" parent="AbeIB3ET5EiKMsJKSj-X-104" vertex="1">
          <mxGeometry x="672" y="1050" width="90" height="30" as="geometry" />
        </mxCell>
        <mxCell id="AbeIB3ET5EiKMsJKSj-X-134" value="show message&quot;invalid choice, pls re-enter &quot;" style="whiteSpace=wrap;html=1;fillColor=#ffffc0;strokeColor=#ff0000;fontColor=#000000;rounded=1;arcSize=40;" parent="AbeIB3ET5EiKMsJKSj-X-104" vertex="1">
          <mxGeometry x="274" y="1110" width="167" height="60" as="geometry" />
        </mxCell>
        <mxCell id="AbeIB3ET5EiKMsJKSj-X-135" value="brand invalid&amp;nbsp;" style="text;html=1;align=center;verticalAlign=middle;resizable=0;points=[];autosize=1;strokeColor=none;fillColor=none;" parent="AbeIB3ET5EiKMsJKSj-X-104" vertex="1">
          <mxGeometry x="597" y="1110" width="90" height="30" as="geometry" />
        </mxCell>
        <mxCell id="AbeIB3ET5EiKMsJKSj-X-136" style="edgeStyle=orthogonalEdgeStyle;rounded=0;orthogonalLoop=1;jettySize=auto;html=1;entryX=0.5;entryY=0;entryDx=0;entryDy=0;" parent="AbeIB3ET5EiKMsJKSj-X-104" source="AbeIB3ET5EiKMsJKSj-X-137" target="AbeIB3ET5EiKMsJKSj-X-183" edge="1">
          <mxGeometry relative="1" as="geometry" />
        </mxCell>
        <mxCell id="AbeIB3ET5EiKMsJKSj-X-137" value="Show message&quot;choose id item and size or enter EXIT to exit&quot;" style="whiteSpace=wrap;html=1;fillColor=#ffffc0;strokeColor=#ff0000;fontColor=#000000;rounded=1;arcSize=40;" parent="AbeIB3ET5EiKMsJKSj-X-104" vertex="1">
          <mxGeometry x="924.5" y="1110" width="221.5" height="60" as="geometry" />
        </mxCell>
        <mxCell id="AbeIB3ET5EiKMsJKSj-X-138" value="" style="edgeStyle=orthogonalEdgeStyle;rounded=0;orthogonalLoop=1;jettySize=auto;html=1;" parent="AbeIB3ET5EiKMsJKSj-X-104" source="AbeIB3ET5EiKMsJKSj-X-139" target="AbeIB3ET5EiKMsJKSj-X-142" edge="1">
          <mxGeometry relative="1" as="geometry" />
        </mxCell>
        <mxCell id="AbeIB3ET5EiKMsJKSj-X-139" value="input item id" style="whiteSpace=wrap;html=1;fillColor=#ffffc0;strokeColor=#ff0000;fontColor=#000000;rounded=1;arcSize=40;" parent="AbeIB3ET5EiKMsJKSj-X-104" vertex="1">
          <mxGeometry x="979.25" y="1330" width="112" height="60" as="geometry" />
        </mxCell>
        <mxCell id="AbeIB3ET5EiKMsJKSj-X-140" value="" style="edgeStyle=orthogonalEdgeStyle;rounded=0;orthogonalLoop=1;jettySize=auto;html=1;" parent="AbeIB3ET5EiKMsJKSj-X-104" source="AbeIB3ET5EiKMsJKSj-X-142" target="AbeIB3ET5EiKMsJKSj-X-144" edge="1">
          <mxGeometry relative="1" as="geometry" />
        </mxCell>
        <mxCell id="AbeIB3ET5EiKMsJKSj-X-141" value="" style="edgeStyle=orthogonalEdgeStyle;rounded=0;orthogonalLoop=1;jettySize=auto;html=1;" parent="AbeIB3ET5EiKMsJKSj-X-104" source="AbeIB3ET5EiKMsJKSj-X-142" target="AbeIB3ET5EiKMsJKSj-X-148" edge="1">
          <mxGeometry relative="1" as="geometry" />
        </mxCell>
        <mxCell id="AbeIB3ET5EiKMsJKSj-X-142" value="" style="rhombus;whiteSpace=wrap;html=1;fillColor=#ffffc0;strokeColor=#ff0000;fontColor=#000000;rounded=1;arcSize=40;" parent="AbeIB3ET5EiKMsJKSj-X-104" vertex="1">
          <mxGeometry x="998.44" y="1630" width="72" height="80" as="geometry" />
        </mxCell>
        <mxCell id="AbeIB3ET5EiKMsJKSj-X-143" style="edgeStyle=orthogonalEdgeStyle;rounded=0;orthogonalLoop=1;jettySize=auto;html=1;entryX=0;entryY=0.5;entryDx=0;entryDy=0;" parent="AbeIB3ET5EiKMsJKSj-X-104" source="AbeIB3ET5EiKMsJKSj-X-144" target="AbeIB3ET5EiKMsJKSj-X-139" edge="1">
          <mxGeometry relative="1" as="geometry">
            <Array as="points">
              <mxPoint x="634" y="1360" />
            </Array>
          </mxGeometry>
        </mxCell>
        <mxCell id="AbeIB3ET5EiKMsJKSj-X-144" value="show message&quot;invalid id pls re-enter&quot;" style="whiteSpace=wrap;html=1;fillColor=#ffffc0;strokeColor=#ff0000;fontColor=#000000;rounded=1;arcSize=40;" parent="AbeIB3ET5EiKMsJKSj-X-104" vertex="1">
          <mxGeometry x="552" y="1640" width="142" height="60" as="geometry" />
        </mxCell>
        <mxCell id="AbeIB3ET5EiKMsJKSj-X-145" value="item id = {&quot;~!@#$%^&amp;amp;*()_+{}:&amp;lt;&amp;gt;?|\[]&quot; &quot;a-z&quot; &quot;A-Z&quot;}" style="text;html=1;align=center;verticalAlign=middle;resizable=0;points=[];autosize=1;strokeColor=none;fillColor=none;" parent="AbeIB3ET5EiKMsJKSj-X-104" vertex="1">
          <mxGeometry x="712" y="1640" width="280" height="30" as="geometry" />
        </mxCell>
        <mxCell id="AbeIB3ET5EiKMsJKSj-X-146" value="" style="edgeStyle=orthogonalEdgeStyle;rounded=0;orthogonalLoop=1;jettySize=auto;html=1;" parent="AbeIB3ET5EiKMsJKSj-X-104" source="AbeIB3ET5EiKMsJKSj-X-148" target="AbeIB3ET5EiKMsJKSj-X-151" edge="1">
          <mxGeometry relative="1" as="geometry" />
        </mxCell>
        <mxCell id="AbeIB3ET5EiKMsJKSj-X-147" value="" style="edgeStyle=orthogonalEdgeStyle;rounded=0;orthogonalLoop=1;jettySize=auto;html=1;entryX=0.5;entryY=0;entryDx=0;entryDy=0;" parent="AbeIB3ET5EiKMsJKSj-X-104" source="AbeIB3ET5EiKMsJKSj-X-148" target="AbeIB3ET5EiKMsJKSj-X-181" edge="1">
          <mxGeometry relative="1" as="geometry" />
        </mxCell>
        <mxCell id="AbeIB3ET5EiKMsJKSj-X-148" value="" style="rhombus;whiteSpace=wrap;html=1;fillColor=#ffffc0;strokeColor=#ff0000;fontColor=#000000;rounded=1;arcSize=40;" parent="AbeIB3ET5EiKMsJKSj-X-104" vertex="1">
          <mxGeometry x="998.44" y="1790" width="72" height="80" as="geometry" />
        </mxCell>
        <mxCell id="AbeIB3ET5EiKMsJKSj-X-149" value="item id = {&quot;1234567890&quot;}" style="text;html=1;align=center;verticalAlign=middle;resizable=0;points=[];autosize=1;strokeColor=none;fillColor=none;" parent="AbeIB3ET5EiKMsJKSj-X-104" vertex="1">
          <mxGeometry x="882" y="1730" width="160" height="30" as="geometry" />
        </mxCell>
        <mxCell id="AbeIB3ET5EiKMsJKSj-X-150" style="edgeStyle=orthogonalEdgeStyle;rounded=0;orthogonalLoop=1;jettySize=auto;html=1;" parent="AbeIB3ET5EiKMsJKSj-X-104" source="AbeIB3ET5EiKMsJKSj-X-151" target="AbeIB3ET5EiKMsJKSj-X-152" edge="1">
          <mxGeometry relative="1" as="geometry">
            <Array as="points">
              <mxPoint x="464" y="1280" />
            </Array>
          </mxGeometry>
        </mxCell>
        <mxCell id="AbeIB3ET5EiKMsJKSj-X-151" value="show message&quot;invalid id pls re-enter" style="whiteSpace=wrap;html=1;fillColor=#ffffc0;strokeColor=#ff0000;fontColor=#000000;rounded=1;arcSize=40;" parent="AbeIB3ET5EiKMsJKSj-X-104" vertex="1">
          <mxGeometry x="409" y="1800" width="135" height="60" as="geometry" />
        </mxCell>
        <mxCell id="AbeIB3ET5EiKMsJKSj-X-152" value="" style="shape=line;html=1;strokeWidth=6;strokeColor=#ff0000;direction=south;" parent="AbeIB3ET5EiKMsJKSj-X-104" vertex="1">
          <mxGeometry x="847" y="1200" width="2" height="100" as="geometry" />
        </mxCell>
        <mxCell id="AbeIB3ET5EiKMsJKSj-X-153" value="" style="edgeStyle=orthogonalEdgeStyle;html=1;verticalAlign=bottom;endArrow=open;endSize=8;strokeColor=#ff0000;rounded=0;entryX=0;entryY=0.5;entryDx=0;entryDy=0;" parent="AbeIB3ET5EiKMsJKSj-X-104" source="AbeIB3ET5EiKMsJKSj-X-152" target="AbeIB3ET5EiKMsJKSj-X-183" edge="1">
          <mxGeometry relative="1" as="geometry">
            <mxPoint x="974" y="1280" as="targetPoint" />
          </mxGeometry>
        </mxCell>
        <mxCell id="AbeIB3ET5EiKMsJKSj-X-154" value="invalid product" style="text;html=1;align=center;verticalAlign=middle;resizable=0;points=[];autosize=1;strokeColor=none;fillColor=none;" parent="AbeIB3ET5EiKMsJKSj-X-104" vertex="1">
          <mxGeometry x="852" y="1800" width="100" height="30" as="geometry" />
        </mxCell>
        <mxCell id="AbeIB3ET5EiKMsJKSj-X-155" value="" style="edgeStyle=orthogonalEdgeStyle;rounded=0;orthogonalLoop=1;jettySize=auto;html=1;" parent="AbeIB3ET5EiKMsJKSj-X-104" source="AbeIB3ET5EiKMsJKSj-X-190" target="AbeIB3ET5EiKMsJKSj-X-163" edge="1">
          <mxGeometry relative="1" as="geometry" />
        </mxCell>
        <mxCell id="AbeIB3ET5EiKMsJKSj-X-156" value="input size" style="whiteSpace=wrap;html=1;fillColor=#ffffc0;strokeColor=#ff0000;fontColor=#000000;rounded=1;arcSize=40;" parent="AbeIB3ET5EiKMsJKSj-X-104" vertex="1">
          <mxGeometry x="979.25" y="2030" width="112" height="60" as="geometry" />
        </mxCell>
        <mxCell id="AbeIB3ET5EiKMsJKSj-X-157" value="valid product" style="text;html=1;align=center;verticalAlign=middle;resizable=0;points=[];autosize=1;strokeColor=none;fillColor=none;" parent="AbeIB3ET5EiKMsJKSj-X-104" vertex="1">
          <mxGeometry x="1032.81" y="1890" width="90" height="30" as="geometry" />
        </mxCell>
        <mxCell id="AbeIB3ET5EiKMsJKSj-X-158" style="edgeStyle=orthogonalEdgeStyle;rounded=0;orthogonalLoop=1;jettySize=auto;html=1;entryX=0.809;entryY=0.8;entryDx=0;entryDy=0;entryPerimeter=0;" parent="AbeIB3ET5EiKMsJKSj-X-104" source="AbeIB3ET5EiKMsJKSj-X-159" target="AbeIB3ET5EiKMsJKSj-X-171" edge="1">
          <mxGeometry relative="1" as="geometry" />
        </mxCell>
        <mxCell id="AbeIB3ET5EiKMsJKSj-X-159" value="show message&quot;invalid size pls re-enter" style="whiteSpace=wrap;html=1;fillColor=#ffffc0;strokeColor=#ff0000;fontColor=#000000;rounded=1;arcSize=40;" parent="AbeIB3ET5EiKMsJKSj-X-104" vertex="1">
          <mxGeometry x="512" y="2300" width="142" height="60" as="geometry" />
        </mxCell>
        <mxCell id="AbeIB3ET5EiKMsJKSj-X-160" value="size != {&amp;nbsp;&quot;XS&quot; &quot;S&quot; &quot;M&quot; &quot;L&quot; &quot;XL&quot; &quot;XXL&quot;}" style="text;html=1;align=center;verticalAlign=middle;resizable=0;points=[];autosize=1;strokeColor=none;fillColor=none;" parent="AbeIB3ET5EiKMsJKSj-X-104" vertex="1">
          <mxGeometry x="742" y="2300" width="220" height="30" as="geometry" />
        </mxCell>
        <mxCell id="AbeIB3ET5EiKMsJKSj-X-161" style="edgeStyle=orthogonalEdgeStyle;rounded=0;orthogonalLoop=1;jettySize=auto;html=1;entryX=1;entryY=0.5;entryDx=0;entryDy=0;" parent="AbeIB3ET5EiKMsJKSj-X-104" source="AbeIB3ET5EiKMsJKSj-X-163" target="AbeIB3ET5EiKMsJKSj-X-159" edge="1">
          <mxGeometry relative="1" as="geometry" />
        </mxCell>
        <mxCell id="AbeIB3ET5EiKMsJKSj-X-162" value="" style="edgeStyle=orthogonalEdgeStyle;rounded=0;orthogonalLoop=1;jettySize=auto;html=1;" parent="AbeIB3ET5EiKMsJKSj-X-104" source="AbeIB3ET5EiKMsJKSj-X-163" target="AbeIB3ET5EiKMsJKSj-X-166" edge="1">
          <mxGeometry relative="1" as="geometry" />
        </mxCell>
        <mxCell id="AbeIB3ET5EiKMsJKSj-X-163" value="" style="rhombus;whiteSpace=wrap;html=1;fillColor=#ffffc0;strokeColor=#ff0000;fontColor=#000000;rounded=1;arcSize=40;" parent="AbeIB3ET5EiKMsJKSj-X-104" vertex="1">
          <mxGeometry x="999.25" y="2290" width="72" height="80" as="geometry" />
        </mxCell>
        <mxCell id="AbeIB3ET5EiKMsJKSj-X-164" value="" style="edgeStyle=orthogonalEdgeStyle;rounded=0;orthogonalLoop=1;jettySize=auto;html=1;" parent="AbeIB3ET5EiKMsJKSj-X-104" source="AbeIB3ET5EiKMsJKSj-X-166" target="AbeIB3ET5EiKMsJKSj-X-169" edge="1">
          <mxGeometry relative="1" as="geometry" />
        </mxCell>
        <mxCell id="AbeIB3ET5EiKMsJKSj-X-165" value="" style="edgeStyle=orthogonalEdgeStyle;rounded=0;orthogonalLoop=1;jettySize=auto;html=1;" parent="AbeIB3ET5EiKMsJKSj-X-104" source="AbeIB3ET5EiKMsJKSj-X-166" target="AbeIB3ET5EiKMsJKSj-X-197" edge="1">
          <mxGeometry relative="1" as="geometry" />
        </mxCell>
        <mxCell id="AbeIB3ET5EiKMsJKSj-X-166" value="" style="rhombus;whiteSpace=wrap;html=1;fillColor=#ffffc0;strokeColor=#ff0000;fontColor=#000000;rounded=1;arcSize=40;" parent="AbeIB3ET5EiKMsJKSj-X-104" vertex="1">
          <mxGeometry x="999.25" y="2450" width="72" height="80" as="geometry" />
        </mxCell>
        <mxCell id="AbeIB3ET5EiKMsJKSj-X-167" value="size = {&amp;nbsp;&quot;XS&quot; &quot;S&quot; &quot;M&quot; &quot;L&quot; &quot;XL&quot; &quot;XXL&quot;}" style="text;html=1;align=center;verticalAlign=middle;resizable=0;points=[];autosize=1;strokeColor=none;fillColor=none;" parent="AbeIB3ET5EiKMsJKSj-X-104" vertex="1">
          <mxGeometry x="824" y="2390" width="220" height="30" as="geometry" />
        </mxCell>
        <mxCell id="AbeIB3ET5EiKMsJKSj-X-168" style="edgeStyle=orthogonalEdgeStyle;rounded=0;orthogonalLoop=1;jettySize=auto;html=1;entryX=1;entryY=0.5;entryDx=0;entryDy=0;" parent="AbeIB3ET5EiKMsJKSj-X-104" source="AbeIB3ET5EiKMsJKSj-X-169" target="AbeIB3ET5EiKMsJKSj-X-174" edge="1">
          <mxGeometry relative="1" as="geometry">
            <mxPoint x="424" y="2490" as="targetPoint" />
            <Array as="points">
              <mxPoint x="424" y="2490" />
              <mxPoint x="424" y="2490" />
            </Array>
          </mxGeometry>
        </mxCell>
        <mxCell id="AbeIB3ET5EiKMsJKSj-X-169" value="show message&quot;&amp;nbsp;This size is out of stock, enter 1 to return choose size or 2 to return choose item id&quot;" style="whiteSpace=wrap;html=1;fillColor=#ffffc0;strokeColor=#ff0000;fontColor=#000000;rounded=1;arcSize=40;" parent="AbeIB3ET5EiKMsJKSj-X-104" vertex="1">
          <mxGeometry x="512" y="2460" width="254" height="60" as="geometry" />
        </mxCell>
        <mxCell id="AbeIB3ET5EiKMsJKSj-X-170" value="out of stock" style="text;html=1;align=center;verticalAlign=middle;resizable=0;points=[];autosize=1;strokeColor=none;fillColor=none;" parent="AbeIB3ET5EiKMsJKSj-X-104" vertex="1">
          <mxGeometry x="849" y="2460" width="80" height="30" as="geometry" />
        </mxCell>
        <mxCell id="AbeIB3ET5EiKMsJKSj-X-171" value="" style="shape=line;html=1;strokeWidth=6;strokeColor=#ff0000;" parent="AbeIB3ET5EiKMsJKSj-X-104" vertex="1">
          <mxGeometry x="459" y="2240" width="112" height="10" as="geometry" />
        </mxCell>
        <mxCell id="AbeIB3ET5EiKMsJKSj-X-172" value="" style="edgeStyle=orthogonalEdgeStyle;html=1;verticalAlign=bottom;endArrow=open;endSize=8;strokeColor=#ff0000;rounded=0;entryX=0.017;entryY=0.5;entryDx=0;entryDy=0;entryPerimeter=0;" parent="AbeIB3ET5EiKMsJKSj-X-104" source="AbeIB3ET5EiKMsJKSj-X-171" target="AbeIB3ET5EiKMsJKSj-X-181" edge="1">
          <mxGeometry relative="1" as="geometry">
            <mxPoint x="674" y="1900" as="targetPoint" />
            <Array as="points">
              <mxPoint x="524" y="1960" />
            </Array>
          </mxGeometry>
        </mxCell>
        <mxCell id="AbeIB3ET5EiKMsJKSj-X-173" value="" style="edgeStyle=orthogonalEdgeStyle;rounded=0;orthogonalLoop=1;jettySize=auto;html=1;" parent="AbeIB3ET5EiKMsJKSj-X-104" source="AbeIB3ET5EiKMsJKSj-X-174" target="AbeIB3ET5EiKMsJKSj-X-177" edge="1">
          <mxGeometry relative="1" as="geometry" />
        </mxCell>
        <mxCell id="AbeIB3ET5EiKMsJKSj-X-174" value="input choose" style="whiteSpace=wrap;html=1;fillColor=#ffffc0;strokeColor=#ff0000;fontColor=#000000;rounded=1;arcSize=40;" parent="AbeIB3ET5EiKMsJKSj-X-104" vertex="1">
          <mxGeometry x="274" y="2460" width="142" height="60" as="geometry" />
        </mxCell>
        <mxCell id="AbeIB3ET5EiKMsJKSj-X-175" style="edgeStyle=orthogonalEdgeStyle;rounded=0;orthogonalLoop=1;jettySize=auto;html=1;entryX=0.25;entryY=0.5;entryDx=0;entryDy=0;entryPerimeter=0;" parent="AbeIB3ET5EiKMsJKSj-X-104" source="AbeIB3ET5EiKMsJKSj-X-177" target="AbeIB3ET5EiKMsJKSj-X-171" edge="1">
          <mxGeometry relative="1" as="geometry" />
        </mxCell>
        <mxCell id="AbeIB3ET5EiKMsJKSj-X-176" style="edgeStyle=orthogonalEdgeStyle;rounded=0;orthogonalLoop=1;jettySize=auto;html=1;entryX=0.25;entryY=0.5;entryDx=0;entryDy=0;entryPerimeter=0;" parent="AbeIB3ET5EiKMsJKSj-X-104" source="AbeIB3ET5EiKMsJKSj-X-177" target="AbeIB3ET5EiKMsJKSj-X-152" edge="1">
          <mxGeometry relative="1" as="geometry">
            <Array as="points">
              <mxPoint x="349" y="1225" />
            </Array>
          </mxGeometry>
        </mxCell>
        <mxCell id="AbeIB3ET5EiKMsJKSj-X-177" value="" style="rhombus;whiteSpace=wrap;html=1;fillColor=#ffffc0;strokeColor=#ff0000;fontColor=#000000;rounded=1;arcSize=40;" parent="AbeIB3ET5EiKMsJKSj-X-104" vertex="1">
          <mxGeometry x="309" y="2310" width="72" height="80" as="geometry" />
        </mxCell>
        <mxCell id="AbeIB3ET5EiKMsJKSj-X-178" value="choose = 1" style="text;html=1;align=center;verticalAlign=middle;resizable=0;points=[];autosize=1;strokeColor=none;fillColor=none;" parent="AbeIB3ET5EiKMsJKSj-X-104" vertex="1">
          <mxGeometry x="389" y="2320" width="80" height="30" as="geometry" />
        </mxCell>
        <mxCell id="AbeIB3ET5EiKMsJKSj-X-179" value="choose = 2" style="text;html=1;align=center;verticalAlign=middle;resizable=0;points=[];autosize=1;strokeColor=none;fillColor=none;" parent="AbeIB3ET5EiKMsJKSj-X-104" vertex="1">
          <mxGeometry x="274" y="2250" width="80" height="30" as="geometry" />
        </mxCell>
        <mxCell id="AbeIB3ET5EiKMsJKSj-X-180" style="edgeStyle=orthogonalEdgeStyle;rounded=0;orthogonalLoop=1;jettySize=auto;html=1;entryX=0.5;entryY=0;entryDx=0;entryDy=0;" parent="AbeIB3ET5EiKMsJKSj-X-104" source="AbeIB3ET5EiKMsJKSj-X-181" target="AbeIB3ET5EiKMsJKSj-X-156" edge="1">
          <mxGeometry relative="1" as="geometry" />
        </mxCell>
        <mxCell id="AbeIB3ET5EiKMsJKSj-X-181" value="show number of items by size and message&quot; choose size&quot;" style="whiteSpace=wrap;html=1;fillColor=#ffffc0;strokeColor=#ff0000;fontColor=#000000;rounded=1;arcSize=40;" parent="AbeIB3ET5EiKMsJKSj-X-104" vertex="1">
          <mxGeometry x="955.6899999999999" y="1930" width="159.12" height="60" as="geometry" />
        </mxCell>
        <mxCell id="AbeIB3ET5EiKMsJKSj-X-182" style="edgeStyle=orthogonalEdgeStyle;rounded=0;orthogonalLoop=1;jettySize=auto;html=1;entryX=0.5;entryY=0;entryDx=0;entryDy=0;" parent="AbeIB3ET5EiKMsJKSj-X-104" source="AbeIB3ET5EiKMsJKSj-X-183" target="AbeIB3ET5EiKMsJKSj-X-139" edge="1">
          <mxGeometry relative="1" as="geometry" />
        </mxCell>
        <mxCell id="AbeIB3ET5EiKMsJKSj-X-183" value="show number of item and message&quot;choose id item&quot;" style="whiteSpace=wrap;html=1;fillColor=#ffffc0;strokeColor=#ff0000;fontColor=#000000;rounded=1;arcSize=40;" parent="AbeIB3ET5EiKMsJKSj-X-104" vertex="1">
          <mxGeometry x="941.88" y="1220" width="186.75" height="60" as="geometry" />
        </mxCell>
        <mxCell id="AbeIB3ET5EiKMsJKSj-X-184" style="edgeStyle=orthogonalEdgeStyle;rounded=0;orthogonalLoop=1;jettySize=auto;html=1;" parent="AbeIB3ET5EiKMsJKSj-X-104" source="AbeIB3ET5EiKMsJKSj-X-185" target="AbeIB3ET5EiKMsJKSj-X-192" edge="1">
          <mxGeometry relative="1" as="geometry">
            <Array as="points">
              <mxPoint x="1270" y="1510" />
            </Array>
          </mxGeometry>
        </mxCell>
        <mxCell id="AbeIB3ET5EiKMsJKSj-X-185" value="" style="rhombus;whiteSpace=wrap;html=1;fillColor=#ffffc0;strokeColor=#ff0000;fontColor=#000000;rounded=1;arcSize=40;" parent="AbeIB3ET5EiKMsJKSj-X-104" vertex="1">
          <mxGeometry x="999.25" y="1470" width="72" height="80" as="geometry" />
        </mxCell>
        <mxCell id="AbeIB3ET5EiKMsJKSj-X-186" value="item id != {&quot;EXIT&quot;}" style="text;html=1;align=center;verticalAlign=middle;resizable=0;points=[];autosize=1;strokeColor=none;fillColor=none;" parent="AbeIB3ET5EiKMsJKSj-X-104" vertex="1">
          <mxGeometry x="1034" y="1560" width="120" height="30" as="geometry" />
        </mxCell>
        <mxCell id="AbeIB3ET5EiKMsJKSj-X-187" value="" style="ellipse;html=1;shape=endState;fillColor=#000000;strokeColor=#ff0000;" parent="AbeIB3ET5EiKMsJKSj-X-104" vertex="1">
          <mxGeometry x="1023.44" y="2980" width="22" height="30" as="geometry" />
        </mxCell>
        <mxCell id="AbeIB3ET5EiKMsJKSj-X-188" value="item id = {&quot;EXIT&quot;}" style="text;html=1;align=center;verticalAlign=middle;resizable=0;points=[];autosize=1;strokeColor=none;fillColor=none;" parent="AbeIB3ET5EiKMsJKSj-X-104" vertex="1">
          <mxGeometry x="1104" y="1480" width="120" height="30" as="geometry" />
        </mxCell>
        <mxCell id="AbeIB3ET5EiKMsJKSj-X-189" style="edgeStyle=orthogonalEdgeStyle;rounded=0;orthogonalLoop=1;jettySize=auto;html=1;" parent="AbeIB3ET5EiKMsJKSj-X-104" source="AbeIB3ET5EiKMsJKSj-X-190" target="AbeIB3ET5EiKMsJKSj-X-192" edge="1">
          <mxGeometry relative="1" as="geometry">
            <Array as="points">
              <mxPoint x="1244" y="2190" />
            </Array>
          </mxGeometry>
        </mxCell>
        <mxCell id="AbeIB3ET5EiKMsJKSj-X-190" value="" style="rhombus;whiteSpace=wrap;html=1;fillColor=#ffffc0;strokeColor=#ff0000;fontColor=#000000;rounded=1;arcSize=40;" parent="AbeIB3ET5EiKMsJKSj-X-104" vertex="1">
          <mxGeometry x="999.26" y="2150" width="72" height="80" as="geometry" />
        </mxCell>
        <mxCell id="AbeIB3ET5EiKMsJKSj-X-191" value="" style="edgeStyle=orthogonalEdgeStyle;rounded=0;orthogonalLoop=1;jettySize=auto;html=1;" parent="AbeIB3ET5EiKMsJKSj-X-104" source="AbeIB3ET5EiKMsJKSj-X-156" target="AbeIB3ET5EiKMsJKSj-X-190" edge="1">
          <mxGeometry relative="1" as="geometry">
            <mxPoint x="999" y="2250" as="sourcePoint" />
            <mxPoint x="999" y="2450" as="targetPoint" />
          </mxGeometry>
        </mxCell>
        <mxCell id="AbeIB3ET5EiKMsJKSj-X-192" value="" style="shape=line;html=1;strokeWidth=6;strokeColor=#ff0000;" parent="AbeIB3ET5EiKMsJKSj-X-104" vertex="1">
          <mxGeometry x="1234" y="2460" width="82" height="10" as="geometry" />
        </mxCell>
        <mxCell id="AbeIB3ET5EiKMsJKSj-X-193" value="" style="edgeStyle=orthogonalEdgeStyle;html=1;verticalAlign=bottom;endArrow=open;endSize=8;strokeColor=#ff0000;rounded=0;entryX=1;entryY=0.5;entryDx=0;entryDy=0;" parent="AbeIB3ET5EiKMsJKSj-X-104" source="AbeIB3ET5EiKMsJKSj-X-192" target="AbeIB3ET5EiKMsJKSj-X-187" edge="1">
          <mxGeometry relative="1" as="geometry">
            <mxPoint x="1304" y="2540" as="targetPoint" />
            <Array as="points">
              <mxPoint x="1264" y="2995" />
            </Array>
          </mxGeometry>
        </mxCell>
        <mxCell id="AbeIB3ET5EiKMsJKSj-X-194" value="size = {&quot;EXIT&quot;}" style="text;html=1;align=center;verticalAlign=middle;resizable=0;points=[];autosize=1;strokeColor=none;fillColor=none;" parent="AbeIB3ET5EiKMsJKSj-X-104" vertex="1">
          <mxGeometry x="1099.25" y="2160" width="100" height="30" as="geometry" />
        </mxCell>
        <mxCell id="AbeIB3ET5EiKMsJKSj-X-195" value="size != {&quot;EXIT&quot;}" style="text;html=1;align=center;verticalAlign=middle;resizable=0;points=[];autosize=1;strokeColor=none;fillColor=none;" parent="AbeIB3ET5EiKMsJKSj-X-104" vertex="1">
          <mxGeometry x="1027.81" y="2240" width="110" height="30" as="geometry" />
        </mxCell>
        <mxCell id="AbeIB3ET5EiKMsJKSj-X-196" style="edgeStyle=orthogonalEdgeStyle;rounded=0;orthogonalLoop=1;jettySize=auto;html=1;entryX=0.5;entryY=0;entryDx=0;entryDy=0;" parent="AbeIB3ET5EiKMsJKSj-X-104" source="AbeIB3ET5EiKMsJKSj-X-197" target="AbeIB3ET5EiKMsJKSj-X-187" edge="1">
          <mxGeometry relative="1" as="geometry" />
        </mxCell>
        <mxCell id="AbeIB3ET5EiKMsJKSj-X-197" value="confirm order, add to the database and show id order" style="whiteSpace=wrap;html=1;fillColor=#ffffc0;strokeColor=#ff0000;fontColor=#000000;rounded=1;arcSize=40;" parent="AbeIB3ET5EiKMsJKSj-X-104" vertex="1">
          <mxGeometry x="931.89" y="2620" width="206.75" height="60" as="geometry" />
        </mxCell>
        <mxCell id="AbeIB3ET5EiKMsJKSj-X-198" value="in stock" style="text;html=1;align=center;verticalAlign=middle;resizable=0;points=[];autosize=1;strokeColor=none;fillColor=none;" parent="AbeIB3ET5EiKMsJKSj-X-104" vertex="1">
          <mxGeometry x="982" y="2560" width="60" height="30" as="geometry" />
        </mxCell>
        <mxCell id="AbeIB3ET5EiKMsJKSj-X-199" style="edgeStyle=orthogonalEdgeStyle;rounded=0;orthogonalLoop=1;jettySize=auto;html=1;" parent="AbeIB3ET5EiKMsJKSj-X-104" source="AbeIB3ET5EiKMsJKSj-X-200" edge="1">
          <mxGeometry relative="1" as="geometry">
            <mxPoint x="1300" y="2460" as="targetPoint" />
            <Array as="points">
              <mxPoint x="1300" y="820" />
            </Array>
          </mxGeometry>
        </mxCell>
        <mxCell id="AbeIB3ET5EiKMsJKSj-X-200" value="" style="rhombus;whiteSpace=wrap;html=1;fillColor=#ffffc0;strokeColor=#ff0000;fontColor=#000000;rounded=1;arcSize=40;" parent="AbeIB3ET5EiKMsJKSj-X-104" vertex="1">
          <mxGeometry x="717" y="780" width="72" height="80" as="geometry" />
        </mxCell>
        <mxCell id="AbeIB3ET5EiKMsJKSj-X-201" value="" style="edgeStyle=orthogonalEdgeStyle;rounded=0;orthogonalLoop=1;jettySize=auto;html=1;" parent="AbeIB3ET5EiKMsJKSj-X-104" source="AbeIB3ET5EiKMsJKSj-X-123" target="AbeIB3ET5EiKMsJKSj-X-200" edge="1">
          <mxGeometry relative="1" as="geometry">
            <mxPoint x="713" y="850" as="sourcePoint" />
            <mxPoint x="713" y="1100" as="targetPoint" />
          </mxGeometry>
        </mxCell>
        <mxCell id="AbeIB3ET5EiKMsJKSj-X-202" value="" style="shape=line;html=1;strokeWidth=6;strokeColor=#ff0000;direction=south;" parent="AbeIB3ET5EiKMsJKSj-X-104" vertex="1">
          <mxGeometry x="560" y="595" width="11" height="130" as="geometry" />
        </mxCell>
        <mxCell id="AbeIB3ET5EiKMsJKSj-X-203" value="" style="edgeStyle=orthogonalEdgeStyle;rounded=0;orthogonalLoop=1;jettySize=auto;html=1;" parent="AbeIB3ET5EiKMsJKSj-X-104" source="AbeIB3ET5EiKMsJKSj-X-134" edge="1">
          <mxGeometry relative="1" as="geometry">
            <mxPoint x="310" y="1270" as="sourcePoint" />
            <mxPoint x="566" y="640" as="targetPoint" />
            <Array as="points">
              <mxPoint x="340" y="640" />
            </Array>
          </mxGeometry>
        </mxCell>
        <mxCell id="AbeIB3ET5EiKMsJKSj-X-204" value="" style="edgeStyle=orthogonalEdgeStyle;html=1;verticalAlign=bottom;endArrow=open;endSize=8;strokeColor=#ff0000;rounded=0;entryX=0;entryY=0.5;entryDx=0;entryDy=0;" parent="AbeIB3ET5EiKMsJKSj-X-104" source="AbeIB3ET5EiKMsJKSj-X-202" target="AbeIB3ET5EiKMsJKSj-X-123" edge="1">
          <mxGeometry relative="1" as="geometry">
            <mxPoint x="690" y="880" as="targetPoint" />
          </mxGeometry>
        </mxCell>
        <mxCell id="AbeIB3ET5EiKMsJKSj-X-205" value="choose = 0" style="text;html=1;align=center;verticalAlign=middle;resizable=0;points=[];autosize=1;strokeColor=none;fillColor=none;" parent="AbeIB3ET5EiKMsJKSj-X-104" vertex="1">
          <mxGeometry x="789" y="780" width="80" height="30" as="geometry" />
        </mxCell>
        <mxCell id="AbeIB3ET5EiKMsJKSj-X-206" value="choose != 0" style="text;html=1;align=center;verticalAlign=middle;resizable=0;points=[];autosize=1;strokeColor=none;fillColor=none;" parent="AbeIB3ET5EiKMsJKSj-X-104" vertex="1">
          <mxGeometry x="745" y="870" width="90" height="30" as="geometry" />
        </mxCell>
        <mxCell id="n4XFdYIGqCoD1R6GZbM6-9" value="orderID != {&quot;1234567890&quot;}" style="text;html=1;align=center;verticalAlign=middle;resizable=0;points=[];autosize=1;strokeColor=none;fillColor=none;" vertex="1" parent="1">
          <mxGeometry x="4880" y="-1370" width="160" height="30" as="geometry" />
        </mxCell>
        <mxCell id="n4XFdYIGqCoD1R6GZbM6-10" value="orderID = {&quot;1234567890&quot;}" style="text;html=1;align=center;verticalAlign=middle;resizable=0;points=[];autosize=1;strokeColor=none;fillColor=none;" vertex="1" parent="1">
          <mxGeometry x="4840" y="-1280" width="160" height="30" as="geometry" />
        </mxCell>
        <mxCell id="n4XFdYIGqCoD1R6GZbM6-12" value="valid orderID" style="text;html=1;align=center;verticalAlign=middle;resizable=0;points=[];autosize=1;strokeColor=none;fillColor=none;" vertex="1" parent="1">
          <mxGeometry x="4840" y="-1130" width="90" height="30" as="geometry" />
        </mxCell>
        <mxCell id="n4XFdYIGqCoD1R6GZbM6-13" value="valid orderID" style="text;html=1;align=center;verticalAlign=middle;resizable=0;points=[];autosize=1;strokeColor=none;fillColor=none;" vertex="1" parent="1">
          <mxGeometry x="4875" y="-1220" width="90" height="30" as="geometry" />
        </mxCell>
        <mxCell id="n4XFdYIGqCoD1R6GZbM6-45" value="" style="edgeStyle=orthogonalEdgeStyle;rounded=0;orthogonalLoop=1;jettySize=auto;html=1;" edge="1" parent="1" source="n4XFdYIGqCoD1R6GZbM6-43" target="n4XFdYIGqCoD1R6GZbM6-44">
          <mxGeometry relative="1" as="geometry" />
        </mxCell>
        <mxCell id="n4XFdYIGqCoD1R6GZbM6-47" value="" style="edgeStyle=orthogonalEdgeStyle;rounded=0;orthogonalLoop=1;jettySize=auto;html=1;entryX=0.25;entryY=0.5;entryDx=0;entryDy=0;entryPerimeter=0;" edge="1" parent="1" source="n4XFdYIGqCoD1R6GZbM6-43" target="n4XFdYIGqCoD1R6GZbM6-50">
          <mxGeometry relative="1" as="geometry">
            <mxPoint x="4770" y="-290" as="targetPoint" />
            <Array as="points">
              <mxPoint x="4750" y="-290" />
              <mxPoint x="4750" y="-160" />
              <mxPoint x="4889" y="-160" />
            </Array>
          </mxGeometry>
        </mxCell>
        <mxCell id="n4XFdYIGqCoD1R6GZbM6-43" value="" style="rhombus;whiteSpace=wrap;html=1;fillColor=#ffffc0;strokeColor=#ff0000;fontColor=#000000;rounded=1;arcSize=40;" vertex="1" parent="1">
          <mxGeometry x="4875" y="-330" width="80" height="80" as="geometry" />
        </mxCell>
        <mxCell id="n4XFdYIGqCoD1R6GZbM6-48" value="confirm order" style="text;html=1;align=center;verticalAlign=middle;resizable=0;points=[];autosize=1;strokeColor=none;fillColor=none;" vertex="1" parent="1">
          <mxGeometry x="4950" y="-320" width="90" height="30" as="geometry" />
        </mxCell>
        <mxCell id="n4XFdYIGqCoD1R6GZbM6-49" value="cancel order" style="text;html=1;align=center;verticalAlign=middle;resizable=0;points=[];autosize=1;strokeColor=none;fillColor=none;" vertex="1" parent="1">
          <mxGeometry x="4785" y="-320" width="90" height="30" as="geometry" />
        </mxCell>
        <mxCell id="n4XFdYIGqCoD1R6GZbM6-60" style="edgeStyle=orthogonalEdgeStyle;rounded=0;orthogonalLoop=1;jettySize=auto;html=1;entryX=0.5;entryY=0;entryDx=0;entryDy=0;" edge="1" parent="1" source="n4XFdYIGqCoD1R6GZbM6-58" target="n4XFdYIGqCoD1R6GZbM6-43">
          <mxGeometry relative="1" as="geometry" />
        </mxCell>
      </root>
    </mxGraphModel>
  </diagram>
</mxfile>
